<svg width="1920" height="1080" version="1.1" viewBox="0 0 1800 1012.5" xmlns="http://www.w3.org/2000/svg" xmlns:osb="http://www.openswatchbook.org/uri/2009/osb" xmlns:xlink="http://www.w3.org/1999/xlink">
    <g transform="translate(0,-39.86216)">
        <rect y="39.862167" width="1800" height="1012.5" fill="#90a4ae"/>
        <path d="m900 307.46362 900 238.64854-900 238.64854-900-238.64854z" fill="#fff" fill-rule="evenodd"/>
        <path d="m899.99998 208.61216 337.50002 337.5-337.50001 337.5-337.5-337.5z" fill="#90a4ae" fill-rule="evenodd"/>
        <g transform="matrix(1.25,0,0,1.25,0,-263.09054)" fill="#485a6c">
            <g stroke-width=".27190331">
                <path class="st2" d="m692.34743 654.54041h-62.32024c3.48036 44.12991 38.69184 79.34139 82.82175 82.82175v-62.89124c-9.89728-2.50151-17.7281-10.14199-20.50151-19.93051z"/>
                <path class="st3" d="m712.84894 619.05702v-61.69486c-43.99396 3.48036-79.12386 38.47432-82.79456 82.4139h62.07553c2.55589-10.16919 10.54985-18.16315 20.71903-20.71904z"/>
                <path class="st4" d="m747.51661 639.77606h62.4562c-3.61632-43.80363-38.55589-78.74321-82.35952-82.38671v61.8852c9.78852 2.77341 17.429 10.60423 19.90332 20.50151z"/>
            </g>
            <rect class="st5" transform="rotate(-45)" x="33.126926" y="993.96722" width="38.74585" height="70.721375" stroke-width=".27190071"/>
        </g>
    </g>
    <style type="text/css">.st0{display:none;}
	.st1{display:inline;}
	.st2{fill:#303F9F;}
	.st3{fill:#3F51B5;}
	.st4{fill:#448AFF;}
	.st5{fill:#FF5722;}</style>
    <style type="text/css">.st0{display:none;}
	.st1{display:inline;}
	.st2{fill:#303F9F;}
	.st3{fill:#3F51B5;}
	.st4{fill:#448AFF;}
	.st5{fill:#FF5722;}</style>
</svg>
