<svg width="1920" height="1080" version="1.1" viewBox="0 0 1800 1012.5" xmlns="http://www.w3.org/2000/svg">
    <rect y="7.3583983e-6" width="1800" height="1012.5" fill="#485a6c"/>
    <path d="M 900,267.60146 1800,506.25 900,744.89854 0,506.25 Z" fill="#fff" fill-rule="evenodd"/>
    <path d="m899.99998 168.75 337.50002 337.5-337.50001 337.5-337.5-337.5z" fill="#485a6c" fill-rule="evenodd"/>
    <path transform="rotate(-45)" d="m255.62857 1028.2391h48.43231v88.4018h-48.43231zm53.82143-16.2539 55.20399 55.204c35.5209-41.9138 35.52092-103.67878 0.024-145.61651l-54.6993 54.69931c6.20054 11.10328 6.0323 24.7781-0.52873 35.7132zm-12.32897-48.95544 54.53107-54.53107c-41.96177-35.8093-103.94308-35.92945-146.02503-0.33645l54.86754 54.86754c11.24749-6.72928 25.37895-6.72928 36.62642-2e-5zm-49.48412 13.24224-55.08383-55.08383c-35.92947 42.08193-35.92947 104.32763-1e-5 146.40953l55.58853-55.5885c-6.53699-10.9591-6.70523-24.63392-0.50469-35.7372z" fill="#90a4ae" stroke-width=".33987591"/>
    <style type="text/css">.st0{display:none;}
	.st1{display:inline;}
	.st2{fill:#303F9F;}
	.st3{fill:#3F51B5;}
	.st4{fill:#448AFF;}
	.st5{fill:#FF5722;}</style>
    <style type="text/css">.st0{display:none;}
	.st1{display:inline;}
	.st2{fill:#303F9F;}
	.st3{fill:#3F51B5;}
	.st4{fill:#448AFF;}
	.st5{fill:#FF5722;}</style>
</svg>
