<svg width="1920" height="1080" version="1.1" viewBox="0 0 508.00002 285.75" xmlns="http://www.w3.org/2000/svg" xmlns:xlink="http://www.w3.org/1999/xlink">
    <defs>
        <linearGradient id="linearGradient4804" x1="508" x2="508" y1="-11.25" y2="-297" gradientTransform="translate(0,-1.9999999e-6)" gradientUnits="userSpaceOnUse">
            <stop stop-color="#273445" offset="0"/>
            <stop stop-color="#485a6c" offset="1"/>
        </linearGradient>
        <filter id="filter4720" y="-.25" height="1.5" color-interpolation-filters="sRGB">
            <feGaussianBlur result="result6" stdDeviation="5"/>
            <feComposite in="SourceGraphic" in2="result6" operator="atop" result="result8"/>
            <feComposite in="result8" in2="SourceAlpha" result="result9"/>
            <feColorMatrix result="result10" values="1 0 0 0 0 0 1 0 0 0 0 0 1 0 0 0 0 0 1 0 "/>
            <feBlend in="result10" in2="result6"/>
        </filter>
    </defs>
    <g transform="translate(0,-11.250002)">
        <rect transform="scale(1,-1)" x="-7.9936058e-14" y="-297" width="508" height="285.75" fill="url(#linearGradient4804)" style="paint-order:normal"/>
        <g transform="translate(-4.8875809e-6,-1.8146972e-6)" filter="url(#filter4720)">
            <path d="m237.33022 149.92825 30.79859 35.19838-4.6093 11.73279-1.04757 14.45649-19.48483 32.05567-37.71256-13.40891m61.38767-145.40286 38.76012 10.266195 13.61843 44.62653-50.91196 45.67409m-78.66513-53.4007 12.33592 17.3156 35.53062 0.88672 22.62754-21.999 6.70446-43.369435-11.15291-19.459404" fill="none" stroke="#fafafa" stroke-linecap="round" stroke-width=".79374999"/>
            <g fill="#fafafa">
                <circle cx="189.32077" cy="131.57689" r="1.4665993" style="paint-order:normal"/>
                <circle cx="201.83444" cy="148.8054" r="1.4665993" style="paint-order:normal"/>
                <circle cx="255.67943" cy="65.009361" r="1.4665993" style="paint-order:normal"/>
                <circle cx="266.80933" cy="84.461662" r="1.4665993" style="paint-order:normal"/>
                <circle cx="260.03821" cy="127.37559" r="1.4665993" style="paint-order:normal"/>
                <circle cx="237.36659" cy="149.82921" r="1.4665993" style="paint-order:normal"/>
                <circle cx="305.4321" cy="94.815918" r="1.4665993" style="paint-order:normal"/>
                <circle cx="318.67923" cy="139.58337" r="1.4665993" style="paint-order:normal"/>
                <circle cx="268.26425" cy="185.32521" r="1.4665993" style="paint-order:normal"/>
                <circle cx="263.41714" cy="196.42593" r="1.4665993" style="paint-order:normal"/>
                <circle cx="262.38168" cy="211.14069" r="1.4665993" style="paint-order:normal"/>
                <circle cx="242.98001" cy="243.24065" r="1.4665993" style="paint-order:normal"/>
                <circle cx="204.83064" cy="229.84749" r="1.4665993" style="paint-order:normal"/>
            </g>
        </g>
        <g transform="translate(0,-1.8146973e-6)">
            <path d="m237.33022 149.92825 30.79859 35.19838-4.6093 11.73279-1.04757 14.45649-19.48483 32.05567-37.71256-13.40891m61.38767-145.40286 38.76012 10.266195 13.61843 44.62653-50.91196 45.67409m-78.66513-53.4007 12.33592 17.3156 35.53062 0.88672 22.62754-21.999 6.70446-43.369435-11.15291-19.459404" fill="none" stroke="#fafafa" stroke-linecap="round" stroke-width=".79374999"/>
            <g fill="#fafafa">
                <circle cx="189.32077" cy="131.57689" r="1.4665993" style="paint-order:normal"/>
                <circle cx="201.83444" cy="148.8054" r="1.4665993" style="paint-order:normal"/>
                <circle cx="255.67943" cy="65.009361" r="1.4665993" style="paint-order:normal"/>
                <circle cx="266.80933" cy="84.461662" r="1.4665993" style="paint-order:normal"/>
                <circle cx="260.03821" cy="127.37559" r="1.4665993" style="paint-order:normal"/>
                <circle cx="237.36659" cy="149.82921" r="1.4665993" style="paint-order:normal"/>
                <circle cx="305.4321" cy="94.815918" r="1.4665993" style="paint-order:normal"/>
                <circle cx="318.67923" cy="139.58337" r="1.4665993" style="paint-order:normal"/>
                <circle cx="268.26425" cy="185.32521" r="1.4665993" style="paint-order:normal"/>
                <circle cx="263.41714" cy="196.42593" r="1.4665993" style="paint-order:normal"/>
                <circle cx="262.38168" cy="211.14069" r="1.4665993" style="paint-order:normal"/>
                <circle cx="242.98001" cy="243.24065" r="1.4665993" style="paint-order:normal"/>
                <circle cx="204.83064" cy="229.84749" r="1.4665993" style="paint-order:normal"/>
            </g>
        </g>
    </g>
</svg>
