<svg width="1920" height="1080" version="1.1" viewBox="0 0 507.99999 285.75001" xmlns="http://www.w3.org/2000/svg" xmlns:xlink="http://www.w3.org/1999/xlink">
    <defs>
        <radialGradient id="radialGradient7637" cx="24.632137" cy="352.76636" r="254" gradientTransform="matrix(1.9977597 -1.7417984e-8 0 .99360853 -48.924562 -53.831458)" gradientUnits="userSpaceOnUse">
            <stop stop-color="#0e141f" offset="0"/>
            <stop stop-color="#68b723" stop-opacity=".74901962" offset="1"/>
        </radialGradient>
    </defs>
    <g transform="translate(0,-11.249983)">
        <rect x=".056777954" y="11.342115" width="507.88644" height="285.56573" style="paint-order:normal"/>
        <g transform="matrix(.99977645 0 0 .99935511 .04887682 .19152471)">
            <path d="m0 11.065595v44.524851l198.4375 61.492874 52.91667-15.875-111.125-90.142725z" fill="#d4d4d4"/>
            <path d="m0.03307342 154.15418-0.06614684-98.563745 198.47057 61.492885-105.83333 37.0047h-92.571094" fill="#abacae"/>
            <path d="m92.604167 154.08802 105.83333-37.0047 121.70833 37.04166z" fill="#7e8087"/>
            <path d="m251.35417 101.20832-52.91667 15.875 121.70833 37.04166z" fill="#555761"/>
            <path d="m281.78125 90.624983-30.42708 10.583337 68.79166 52.91666z" fill="#7e8087"/>
            <path d="m281.78125 90.624983 39.6875-17.197917-1.32265 80.697914z" fill="#d4d4d4"/>
            <path d="m394.96728 97.068623 56.89424 16.119867-131.71542 40.93649z" fill="#abacae"/>
            <path d="m361.2722 85.763405 33.69508 11.305218-74.82118 57.056327z" fill="#7e8087"/>
            <path d="m361.2722 85.763405-39.80345-12.336339-1.32265 80.697884z" fill="#555761"/>
            <path d="m451.86152 113.18849-7.9375 40.97346-123.77792-0.037z" fill="#7e8087"/>
            <path d="m321.46875 73.427066 39.80345 12.33634 37.48372-74.645539z" fill="#abacae"/>
            <path d="m394.96728 97.068623-33.69508-11.305218 37.48372-74.645538z" fill="#d4d4d4"/>
            <path d="m394.96728 97.068623 56.89424 16.119867-28.31983-40.84998z" fill="#d4d4d4"/>
            <path d="m398.75592 11.117867-3.78864 85.950756 28.57441-24.730113z" fill="#7e8087"/>
            <path d="m398.75592 11.065595 24.78577 61.272915 30.51121-21.811387z" fill="#555761"/>
            <path d="m398.75592 11.117867-77.28717 62.309199-14.87023-29.689972z" fill="#7e8087"/>
            <path d="m267.57699 55.490538 53.89176 17.936528-14.87023-29.689972z" fill="#abacae"/>
            <path d="m321.46875 73.427066-53.89176-17.936528 14.20426 35.134445z" fill="#555761"/>
            <path d="m140.22917 11.065595 127.34781 44.424943 14.20427 35.134445-30.42708 10.583337z" fill="#abacae"/>
            <path d="m140.22917 11.065595 154.58249 0.138129 11.78687 32.533369-39.02155 11.753445z" fill="#d4d4d4"/>
            <path d="m398.75592 11.065595-103.94426 0.138129 11.78687 32.533369z" fill="#555761"/>
            <path d="m451.86152 113.18849-7.9375 40.89953 64.10758 0.066-0.0632-24.63233z" fill="#abacae"/>
            <path d="m454.0529 50.527123-30.51121 21.811387 28.31983 40.84998 56.13848 16.33327v-37.732363z" fill="#7e8087"/>
            <path d="m473.09124 34.053625-19.03834 16.473498 54.0118 41.262297-0.1294-43.81106z" fill="#d4d4d4"/>
            <path d="m417.53419 11.434371-18.77827-0.316504 55.29698 39.409256 19.03834-16.473498z" fill="#7e8087"/>
            <path d="M 417.53419,11.434371 473.09124,34.053625 508,11.065719 Z" fill="#abacae"/>
            <path d="M 473.09124,34.053625 507.9353,47.97836 508,11.065719 Z" fill="#7e8087"/>
            <path d="m-0.01581329 296.99999v-44.52486l198.4375-61.49287 52.91667 15.875-111.125 90.14273z" fill="#555761"/>
            <path d="m0.01726013 153.9114-0.06614684 98.56374 198.47058-61.49288-105.83334-37.0047h-92.571094" fill="#7e8087"/>
            <path d="m92.588354 153.97756 105.83334 37.0047 121.72414-36.85728z" fill="#d4d4d4"/>
            <path d="m251.33836 206.85726-52.91667-15.875 121.72414-36.85728z" fill="#abacae"/>
            <path d="m281.76544 217.4406-30.42708-10.58334 68.80747-52.73228z" fill="#555761"/>
            <path d="m281.76544 217.4406 39.6875 17.19791-1.30711-80.51353z" fill="#7e8087"/>
            <path d="m394.95147 210.99696 56.89424-16.11987-131.69988-40.75211z" fill="#abacae"/>
            <path d="m361.25639 222.30217 33.69508-11.30521-74.80537-56.87198z" fill="#555761"/>
            <path d="m361.25639 222.30217-39.80345 12.33634-1.30684-80.51353z" fill="#abacae"/>
            <path d="m451.84571 194.87709-7.9375-40.97346-123.76211 0.22135z" fill="#555761"/>
            <path d="m321.45294 234.63851 39.80345-12.33634 37.48372 74.64554z" fill="#555761"/>
            <path d="m394.95147 210.99696-33.69508 11.30521 37.48372 74.64554z" fill="#d4d4d4"/>
            <path d="m394.95147 210.99696 56.89424-16.11987-28.31983 40.84998z" fill="#555761"/>
            <path d="m398.74011 296.94771-3.78864-85.95075 28.57441 24.73011z" fill="#abacae"/>
            <path d="m398.74011 296.99999 24.78577-61.27292 30.51121 21.81139z" fill="#d4d4d4"/>
            <path d="m398.74011 296.94771-77.28717-62.3092-14.87023 29.68998z" fill="#7e8087"/>
            <path d="m267.56118 252.57504 53.89176-17.93653-14.87023 29.68998z" fill="#d4d4d4"/>
            <path d="m321.45294 234.63851-53.89176 17.93653 14.20426-35.13444z" fill="#555761"/>
            <path d="m140.21336 296.99999 127.34781-44.42495 14.20427-35.13444-30.42708-10.58334z" fill="#d4d4d4"/>
            <path d="m140.21336 296.99999 154.58249-0.13813 11.78687-32.53337-39.02155-11.75345z" fill="#abacae"/>
            <path d="m398.74011 296.99999-103.94426-0.13813 11.78687-32.53337z" fill="#d4d4d4"/>
            <path d="m451.84571 194.87709-7.9375-40.89953 64.10758-0.066-0.0632 24.63233z" fill="#d4d4d4"/>
            <path d="m454.03709 257.53846-30.51121-21.81139 28.31983-40.84998 56.13848-16.33327v37.73236z" fill="#7e8087"/>
            <path d="m473.07543 274.01195-19.03834-16.47349 54.0118-41.2623-0.1294 43.81106z" fill="#d4d4d4"/>
            <path d="m417.51838 296.63121-18.77827 0.3165 55.29698-39.40925 19.03834 16.47349z" fill="#555761"/>
            <path d="m417.51838 296.63121 55.55705-22.61926 34.90876 22.98791z" fill="#7e8087"/>
            <path d="m473.07543 274.01195 34.84406-13.92473 0.0647 36.91264z" fill="#abacae"/>
        </g>
        <rect x=".28453064" y="11.569777" width="507.43094" height="285.11041" fill="url(#radialGradient7637)" stroke="#000" stroke-linecap="round" stroke-width=".45540503" style="paint-order:normal"/>
    </g>
</svg>
