<?xml version="1.0" encoding="UTF-8" standalone="no"?>
<svg
   xmlns:dc="http://purl.org/dc/elements/1.1/"
   xmlns:cc="http://creativecommons.org/ns#"
   xmlns:rdf="http://www.w3.org/1999/02/22-rdf-syntax-ns#"
   xmlns:svg="http://www.w3.org/2000/svg"
   xmlns="http://www.w3.org/2000/svg"
   xmlns:xlink="http://www.w3.org/1999/xlink"
   xmlns:sodipodi="http://sodipodi.sourceforge.net/DTD/sodipodi-0.dtd"
   xmlns:inkscape="http://www.inkscape.org/namespaces/inkscape"
   id="svg2"
   xml:space="preserve"
   viewBox="0 0 1920 1080"
   version="1.1"
   sodipodi:docname="penguin.svg"
   width="1920"
   height="1080"
   inkscape:version="0.92.1 r15371"
   inkscape:export-filename="/home/john/Github/q4os-wallpapers/png/penguin.png"
   inkscape:export-xdpi="96"
   inkscape:export-ydpi="96"><sodipodi:namedview
     pagecolor="#ffffff"
     bordercolor="#666666"
     borderopacity="1"
     objecttolerance="10"
     gridtolerance="10"
     guidetolerance="10"
     inkscape:pageopacity="0"
     inkscape:pageshadow="2"
     inkscape:window-width="1362"
     inkscape:window-height="695"
     id="namedview275"
     showgrid="false"
     inkscape:zoom="0.44427083"
     inkscape:cx="962.25088"
     inkscape:cy="540"
     inkscape:window-x="0"
     inkscape:window-y="0"
     inkscape:window-maximized="1"
     inkscape:current-layer="svg2"
     showguides="true" /><defs
     id="defs6"><linearGradient
       inkscape:collect="always"
       id="linearGradient5588"><stop
         style="stop-color:#555761;stop-opacity:1;"
         offset="0"
         id="stop5584" /><stop
         style="stop-color:#555761;stop-opacity:0;"
         offset="1"
         id="stop5586" /></linearGradient><clipPath
       id="clipPath40"
       clipPathUnits="userSpaceOnUse"><path
         id="path42"
         d="M 0,375 H 500 V 0 H 0 Z"
         inkscape:connector-curvature="0" /></clipPath><radialGradient
       id="radialGradient4315"
       gradientUnits="userSpaceOnUse"
       cy="649.70001"
       cx="196.12"
       gradientTransform="matrix(-0.08254125,1.0163,0.931925,0.0756975,-43.74125,414.925)"
       r="250"><stop
         id="stop4309"
         stop-color="#333"
         offset="0" /><stop
         id="stop4311"
         offset="1" /></radialGradient><radialGradient
       inkscape:collect="always"
       xlink:href="#linearGradient5588"
       id="radialGradient5594"
       gradientUnits="userSpaceOnUse"
       gradientTransform="matrix(-3.3031715,-0.34648611,0.27421367,-2.6141751,4783.2856,3025.5823)"
       cx="1141.7249"
       cy="925.23944"
       fx="1141.7249"
       fy="925.23944"
       r="250.00002" /></defs><g
     id="g5502"
     transform="matrix(3.0658675,0,0,2.304,1.9164063,-1409.76)"><path
       inkscape:connector-curvature="0"
       style="fill:url(#radialGradient4315);stroke:#333333;stroke-width:1.25"
       d="M 0,1080 H 625 V 612.5 H 0 Z"
       id="path34" /><g
       transform="matrix(1.25,0,0,-1.25,0,1080)"
       style="stroke:#333333"
       id="g36"><g
         style="stroke:#333333"
         clip-path="url(#clipPath40)"
         id="g38"><g
           transform="translate(0,243)"
           id="g44"><path
             style="fill:none;stroke:#333333"
             inkscape:connector-curvature="0"
             d="M 0,0 C 121.67,-307.34 216,-187.04 500,-242.04"
             id="path46" /></g><g
           transform="translate(5e-4,235.35)"
           id="g48"><path
             style="fill:none;stroke:#333333"
             inkscape:connector-curvature="0"
             d="M 0,0 C 127.26,-298.84 222.83,-179.22 500,-223.64"
             id="path50" /></g><g
           transform="translate(0,227.69)"
           id="g52"><path
             style="fill:none;stroke:#333333"
             inkscape:connector-curvature="0"
             d="M 0,0 C 132.85,-290.34 229.67,-171.41 500,-205.24"
             id="path54" /></g><g
           transform="translate(-5e-4,220.04)"
           id="g56"><path
             style="fill:none;stroke:#333333"
             inkscape:connector-curvature="0"
             d="M 0,0 C 138.44,-281.84 236.5,-163.59 500,-186.84"
             id="path58" /></g><g
           transform="translate(0,212.38)"
           id="g60"><path
             style="fill:none;stroke:#333333"
             inkscape:connector-curvature="0"
             d="M 0,0 C 144.02,-273.34 243.34,-155.78 500,-168.44"
             id="path62" /></g><g
           transform="translate(0,204.73)"
           id="g64"><path
             style="fill:none;stroke:#333333"
             inkscape:connector-curvature="0"
             d="M 0,0 C 149.62,-264.84 250.17,-147.96 500,-150.04"
             id="path66" /></g><g
           transform="translate(0,197.08)"
           id="g68"><path
             style="fill:none;stroke:#333333"
             inkscape:connector-curvature="0"
             d="M 0,0 C 155.2,-256.34 257.01,-140.15 500,-131.65"
             id="path70" /></g><g
           transform="translate(-5e-4,189.42)"
           id="g72"><path
             style="fill:none;stroke:#333333"
             inkscape:connector-curvature="0"
             d="M 0,0 C 160.79,-247.84 263.84,-132.33 500,-113.25"
             id="path74" /></g><g
           transform="translate(0,181.77)"
           id="g76"><path
             style="fill:none;stroke:#333333"
             inkscape:connector-curvature="0"
             d="M 0,0 C 166.38,-239.34 270.68,-124.52 500,-94.848"
             id="path78" /></g><g
           transform="translate(5e-4,174.12)"
           id="g80"><path
             style="fill:none;stroke:#333333"
             inkscape:connector-curvature="0"
             d="M 0,0 C 171.97,-230.84 277.51,-116.7 500,-76.448"
             id="path82" /></g><g
           transform="translate(0,166.46)"
           id="g84"><path
             style="fill:none;stroke:#333333"
             inkscape:connector-curvature="0"
             d="M 0,0 C 177.56,-222.33 284.34,-108.89 500,-58.049"
             id="path86" /></g><g
           transform="translate(0,158.81)"
           id="g88"><path
             style="fill:none;stroke:#333333"
             inkscape:connector-curvature="0"
             d="M 0,0 C 183.15,-213.84 291.18,-101.08 500,-39.65"
             id="path90" /></g><g
           transform="translate(0,151.15)"
           id="g92"><path
             style="fill:none;stroke:#333333"
             inkscape:connector-curvature="0"
             d="M 0,0 C 188.74,-205.34 298.01,-93.261 500,-21.252"
             id="path94" /></g><g
           transform="translate(0,143.5)"
           id="g96"><path
             style="fill:none;stroke:#333333"
             inkscape:connector-curvature="0"
             d="M 0,0 C 194.33,-196.84 304.85,-85.445 500,-2.854"
             id="path98" /></g><g
           transform="translate(0,135.85)"
           id="g100"><path
             style="fill:none;stroke:#333333"
             inkscape:connector-curvature="0"
             d="M 0,0 C 199.92,-188.33 311.68,-77.63 500,15.546"
             id="path102" /></g><g
           transform="translate(0,128.19)"
           id="g104"><path
             style="fill:none;stroke:#333333"
             inkscape:connector-curvature="0"
             d="M 0,0 C 205.51,-179.84 318.52,-69.815 500,33.944"
             id="path106" /></g><g
           transform="translate(0,120.54)"
           id="g108"><path
             style="fill:none;stroke:#333333"
             inkscape:connector-curvature="0"
             d="M 0,0 C 211.1,-171.34 325.35,-62.002 500,52.342"
             id="path110" /></g><g
           transform="translate(0,112.88)"
           id="g112"><path
             style="fill:none;stroke:#333333"
             inkscape:connector-curvature="0"
             d="M 0,0 C 216.69,-162.84 332.19,-54.186 500,70.742"
             id="path114" /></g><g
           transform="translate(0,105.23)"
           id="g116"><path
             style="fill:none;stroke:#333333"
             inkscape:connector-curvature="0"
             d="M 0,0 C 222.28,-154.34 339.02,-46.371 500,89.142"
             id="path118" /></g><g
           transform="translate(0,97.577)"
           id="g120"><path
             style="fill:none;stroke:#333333"
             inkscape:connector-curvature="0"
             d="M 0,0 C 227.87,-145.84 345.85,-38.557 500,107.54"
             id="path122" /></g><g
           transform="translate(0,89.923)"
           id="g124"><path
             style="fill:none;stroke:#333333"
             inkscape:connector-curvature="0"
             d="M 0,0 C 233.46,-137.34 352.69,-30.741 500,125.94"
             id="path126" /></g><g
           transform="translate(0,82.27)"
           id="g128"><path
             style="fill:none;stroke:#333333"
             inkscape:connector-curvature="0"
             d="M 0,0 C 239.05,-128.84 359.52,-22.928 500,144.34"
             id="path130" /></g><g
           transform="translate(0,74.615)"
           id="g132"><path
             style="fill:none;stroke:#333333"
             inkscape:connector-curvature="0"
             d="M 0,0 C 244.64,-120.34 366.36,-15.111 500,162.74"
             id="path134" /></g><g
           transform="translate(0,66.962)"
           id="g136"><path
             style="fill:none;stroke:#333333"
             inkscape:connector-curvature="0"
             d="M 0,0 C 250.23,-111.84 373.19,-7.298 500,181.14"
             id="path138" /></g><g
           transform="translate(0,59.308)"
           id="g140"><path
             style="fill:none;stroke:#333333"
             inkscape:connector-curvature="0"
             d="M 0,0 C 255.82,-103.34 380.03,0.518 500,199.53"
             id="path142" /></g><g
           transform="translate(0,51.654)"
           id="g144"><path
             style="fill:none;stroke:#333333"
             inkscape:connector-curvature="0"
             d="M 0,0 C 261.41,-94.835 386.86,8.332 500,217.93"
             id="path146" /></g><g
           transform="translate(0,44)"
           id="g148"><path
             style="fill:none;stroke:#333333"
             inkscape:connector-curvature="0"
             d="M 0,0 C 267,-86.335 393.7,16.147 500,236.33"
             id="path150" /></g><g
           transform="translate(0,-1)"
           id="g152"><path
             style="fill:none;stroke:#333333;stroke-width:0.25"
             inkscape:connector-curvature="0"
             d="M 0,0 C 153.67,101.33 214.33,-75.336 500,47.998"
             id="path154" /></g><g
           transform="translate(0,0.9268)"
           id="g156"><path
             style="fill:none;stroke:#333333;stroke-width:0.25"
             inkscape:connector-curvature="0"
             d="M 0,0 C 156.61,96.429 221.3,-76.417 500,50.4"
             id="path158" /></g><g
           transform="translate(0,2.8535)"
           id="g160"><path
             style="fill:none;stroke:#333333;stroke-width:0.25"
             inkscape:connector-curvature="0"
             d="M 0,0 C 159.55,91.526 228.27,-77.498 500,52.804"
             id="path162" /></g><g
           transform="translate(0,4.7803)"
           id="g164"><path
             style="fill:none;stroke:#333333;stroke-width:0.25"
             inkscape:connector-curvature="0"
             d="M 0,0 C 162.5,86.624 235.24,-78.58 500,55.206"
             id="path166" /></g><g
           transform="translate(0,6.707)"
           id="g168"><path
             style="fill:none;stroke:#333333;stroke-width:0.25"
             inkscape:connector-curvature="0"
             d="M 0,0 C 165.44,81.722 242.2,-79.66 500,57.608"
             id="path170" /></g><g
           transform="translate(0,8.6338)"
           id="g172"><path
             style="fill:none;stroke:#333333;stroke-width:0.25"
             inkscape:connector-curvature="0"
             d="M 0,0 C 168.38,76.819 249.17,-80.742 500,60.011"
             id="path174" /></g><g
           transform="translate(5e-4,10.56)"
           id="g176"><path
             style="fill:none;stroke:#333333;stroke-width:0.25"
             inkscape:connector-curvature="0"
             d="M 0,0 C 171.32,71.916 256.14,-81.823 500,62.413"
             id="path178" /></g><g
           transform="translate(0,12.488)"
           id="g180"><path
             style="fill:none;stroke:#333333;stroke-width:0.25"
             inkscape:connector-curvature="0"
             d="M 0,0 C 174.27,67.014 263.11,-82.905 500,64.815"
             id="path182" /></g><g
           transform="translate(-5e-4,14.415)"
           id="g184"><path
             style="fill:none;stroke:#333333;stroke-width:0.25"
             inkscape:connector-curvature="0"
             d="M 0,0 C 177.21,62.111 270.07,-83.986 500,67.218"
             id="path186" /></g><g
           transform="translate(0,16.342)"
           id="g188"><path
             style="fill:none;stroke:#333333;stroke-width:0.25"
             inkscape:connector-curvature="0"
             d="M 0,0 C 180.15,57.209 277.04,-85.067 500,69.62"
             id="path190" /></g><g
           transform="translate(5e-4,18.2676)"
           id="g192"><path
             style="fill:none;stroke:#333333;stroke-width:0.25"
             inkscape:connector-curvature="0"
             d="M 0,0 C 183.1,52.307 284.01,-86.148 500,72.023"
             id="path194" /></g><g
           transform="translate(0,20.195)"
           id="g196"><path
             style="fill:none;stroke:#333333;stroke-width:0.25"
             inkscape:connector-curvature="0"
             d="M 0,0 C 186.04,47.404 290.98,-87.23 500,74.426"
             id="path198" /></g><g
           transform="translate(-5e-4,22.1221)"
           id="g200"><path
             style="fill:none;stroke:#333333;stroke-width:0.25"
             inkscape:connector-curvature="0"
             d="M 0,0 C 188.98,42.502 297.94,-88.311 500,76.828"
             id="path202" /></g><g
           transform="translate(0,24.049)"
           id="g204"><path
             style="fill:none;stroke:#333333;stroke-width:0.25"
             inkscape:connector-curvature="0"
             d="M 0,0 C 191.93,37.6 304.91,-89.393 500,79.23"
             id="path206" /></g><g
           transform="translate(0,25.976)"
           id="g208"><path
             style="fill:none;stroke:#333333;stroke-width:0.25"
             inkscape:connector-curvature="0"
             d="M 0,0 C 194.87,32.696 311.88,-90.474 500,81.633"
             id="path210" /></g><g
           transform="translate(0,27.902)"
           id="g212"><path
             style="fill:none;stroke:#333333;stroke-width:0.25"
             inkscape:connector-curvature="0"
             d="M 0,0 C 197.81,27.795 318.85,-91.555 500,84.035"
             id="path214" /></g><g
           transform="translate(-5e-4,29.8291)"
           id="g216"><path
             style="fill:none;stroke:#333333;stroke-width:0.25"
             inkscape:connector-curvature="0"
             d="M 0,0 C 200.76,22.894 325.81,-92.636 500,86.438"
             id="path218" /></g><g
           transform="translate(0,31.756)"
           id="g220"><path
             style="fill:none;stroke:#333333;stroke-width:0.25"
             inkscape:connector-curvature="0"
             d="M 0,0 C 203.7,17.99 332.78,-93.718 500,88.841"
             id="path222" /></g><g
           transform="translate(0,33.683)"
           id="g224"><path
             style="fill:none;stroke:#333333;stroke-width:0.25"
             inkscape:connector-curvature="0"
             d="M 0,0 C 206.64,13.088 339.75,-94.799 500,91.243"
             id="path226" /></g><g
           transform="translate(0,35.609)"
           id="g228"><path
             style="fill:none;stroke:#333333;stroke-width:0.25"
             inkscape:connector-curvature="0"
             d="M 0,0 C 209.59,8.186 346.72,-95.88 500,93.646"
             id="path230" /></g><g
           transform="translate(0,37.537)"
           id="g232"><path
             style="fill:none;stroke:#333333;stroke-width:0.25"
             inkscape:connector-curvature="0"
             d="M 0,0 C 212.53,3.282 353.68,-96.962 500,96.048"
             id="path234" /></g><g
           transform="translate(0,39.464)"
           id="g236"><path
             style="fill:none;stroke:#333333;stroke-width:0.25"
             inkscape:connector-curvature="0"
             d="M 0,0 C 215.47,-1.62 360.65,-98.043 500,98.45"
             id="path238" /></g><g
           transform="translate(0,41.391)"
           id="g240"><path
             style="fill:none;stroke:#333333;stroke-width:0.25"
             inkscape:connector-curvature="0"
             d="M 0,0 C 218.42,-6.522 367.62,-99.125 500,100.85"
             id="path242" /></g><g
           transform="translate(0,43.316)"
           id="g244"><path
             style="fill:none;stroke:#333333;stroke-width:0.25"
             inkscape:connector-curvature="0"
             d="M 0,0 C 221.36,-11.424 374.59,-100.2 500,103.26"
             id="path246" /></g><g
           transform="translate(0,45.244)"
           id="g248"><path
             style="fill:none;stroke:#333333;stroke-width:0.25"
             inkscape:connector-curvature="0"
             d="M 0,0 C 224.3,-16.327 381.55,-101.29 500,105.66"
             id="path250" /></g><g
           transform="translate(0,47.171)"
           id="g252"><path
             style="fill:none;stroke:#333333;stroke-width:0.25"
             inkscape:connector-curvature="0"
             d="M 0,0 C 227.24,-21.229 388.52,-102.37 500,108.06"
             id="path254" /></g><g
           transform="translate(0,49.098)"
           id="g256"><path
             style="fill:none;stroke:#333333;stroke-width:0.25"
             inkscape:connector-curvature="0"
             d="M 0,0 C 230.19,-26.132 395.49,-103.45 500,110.46"
             id="path258" /></g><g
           transform="translate(0,51.024)"
           id="g260"><path
             style="fill:none;stroke:#333333;stroke-width:0.25"
             inkscape:connector-curvature="0"
             d="M 0,0 C 233.13,-31.034 402.46,-104.53 500,112.86"
             id="path262" /></g><g
           transform="translate(0,52.951)"
           id="g264"><path
             style="fill:none;stroke:#333333;stroke-width:0.25"
             inkscape:connector-curvature="0"
             d="M 0,0 C 236.07,-35.937 409.42,-105.61 500,115.27"
             id="path266" /></g><g
           transform="translate(0,54.878)"
           id="g268"><path
             style="fill:none;stroke:#333333;stroke-width:0.25"
             inkscape:connector-curvature="0"
             d="M 0,0 C 239.02,-40.839 416.39,-106.69 500,117.67"
             id="path270" /></g><g
           transform="translate(0,56.805)"
           id="g272"><path
             style="fill:none;stroke:#333333;stroke-width:0.25"
             inkscape:connector-curvature="0"
             d="M 0,0 C 241.96,-45.741 423.36,-107.77 500,120.07"
             id="path274" /></g><g
           transform="translate(0,58.731)"
           id="g276"><path
             style="fill:none;stroke:#333333;stroke-width:0.25"
             inkscape:connector-curvature="0"
             d="M 0,0 C 244.9,-50.644 430.32,-108.86 500,122.48"
             id="path278" /></g><g
           transform="translate(0,60.658)"
           id="g280"><path
             style="fill:none;stroke:#333333;stroke-width:0.25"
             inkscape:connector-curvature="0"
             d="M 0,0 C 247.85,-55.546 437.29,-109.94 500,124.88"
             id="path282" /></g><g
           transform="translate(0,62.585)"
           id="g284"><path
             style="fill:none;stroke:#333333;stroke-width:0.25"
             inkscape:connector-curvature="0"
             d="M 0,0 C 250.79,-60.448 444.26,-111.02 500,127.28"
             id="path286" /></g><g
           transform="translate(0,64.513)"
           id="g288"><path
             style="fill:none;stroke:#333333;stroke-width:0.25"
             inkscape:connector-curvature="0"
             d="M 0,0 C 253.73,-65.352 451.23,-112.1 500,129.68"
             id="path290" /></g><g
           transform="translate(0,66.44)"
           id="g292"><path
             style="fill:none;stroke:#333333;stroke-width:0.25"
             inkscape:connector-curvature="0"
             d="M 0,0 C 256.68,-70.254 458.2,-113.18 500,132.08"
             id="path294" /></g><g
           transform="translate(0,68.365)"
           id="g296"><path
             style="fill:none;stroke:#333333;stroke-width:0.25"
             inkscape:connector-curvature="0"
             d="M 0,0 C 259.62,-75.155 465.16,-114.26 500,134.49"
             id="path298" /></g><g
           transform="translate(0,70.293)"
           id="g300"><path
             style="fill:none;stroke:#333333;stroke-width:0.25"
             inkscape:connector-curvature="0"
             d="M 0,0 C 262.56,-80.059 472.13,-115.34 500,136.89"
             id="path302" /></g><g
           transform="translate(0,72.22)"
           id="g304"><path
             style="fill:none;stroke:#333333;stroke-width:0.25"
             inkscape:connector-curvature="0"
             d="M 0,0 C 265.5,-84.961 479.1,-116.42 500,139.29"
             id="path306" /></g><g
           transform="translate(0,74.146)"
           id="g308"><path
             style="fill:none;stroke:#333333;stroke-width:0.25"
             inkscape:connector-curvature="0"
             d="M 0,0 C 268.45,-89.863 486.06,-117.51 500,141.7"
             id="path310" /></g><g
           transform="translate(0,76.073)"
           id="g312"><path
             style="fill:none;stroke:#333333;stroke-width:0.25"
             inkscape:connector-curvature="0"
             d="M 0,0 C 271.39,-94.766 493.03,-118.59 500,144.1"
             id="path314" /></g><g
           transform="translate(0,78)"
           id="g316"><path
             style="fill:none;stroke:#333333;stroke-width:0.25"
             inkscape:connector-curvature="0"
             d="M 0,0 C 274.33,-99.668 500,-119.67 500,146.5"
             id="path318" /></g><g
           transform="translate(142.33,371)"
           id="g320"><path
             style="fill:none;stroke:#333333;stroke-width:0.25"
             inkscape:connector-curvature="0"
             d="M 0,0 C -153.67,-113.67 -132.26,-246.67 -140.79,-371"
             id="path322" /></g><g
           transform="translate(137.46,371.11)"
           id="g324"><path
             style="fill:none;stroke:#333333;stroke-width:0.25"
             inkscape:connector-curvature="0"
             d="M 0,0 C -150.01,-117.32 -124.89,-251.4 -125.5,-371.11"
             id="path326" /></g><g
           transform="translate(132.59,371.23)"
           id="g328"><path
             style="fill:none;stroke:#333333;stroke-width:0.25"
             inkscape:connector-curvature="0"
             d="M 0,0 C -146.36,-120.97 -117.52,-256.13 -110.19,-371.23"
             id="path330" /></g><g
           transform="translate(127.72,371.34)"
           id="g332"><path
             style="fill:none;stroke:#333333;stroke-width:0.25"
             inkscape:connector-curvature="0"
             d="M 0,0 C -142.7,-124.63 -110.15,-260.86 -94.896,-371.34"
             id="path334" /></g><g
           transform="translate(122.85,371.46)"
           id="g336"><path
             style="fill:none;stroke:#333333;stroke-width:0.25"
             inkscape:connector-curvature="0"
             d="M 0,0 C -139.05,-128.28 -102.78,-265.59 -79.595,-371.46"
             id="path338" /></g><g
           transform="translate(117.97,371.58)"
           id="g340"><path
             style="fill:none;stroke:#333333;stroke-width:0.25"
             inkscape:connector-curvature="0"
             d="M 0,0 C -135.4,-131.94 -95.412,-270.32 -64.296,-371.58"
             id="path342" /></g><g
           transform="translate(113.1,371.69)"
           id="g344"><path
             style="fill:none;stroke:#333333;stroke-width:0.25"
             inkscape:connector-curvature="0"
             d="M 0,0 C -131.74,-135.59 -88.043,-275.05 -48.996,-371.69"
             id="path346" /></g><g
           transform="translate(108.23,371.81)"
           id="g348"><path
             style="fill:none;stroke:#333333;stroke-width:0.25"
             inkscape:connector-curvature="0"
             d="M 0,0 C -128.09,-139.24 -80.674,-279.78 -33.696,-371.81"
             id="path350" /></g><g
           transform="translate(103.36,371.92)"
           id="g352"><path
             style="fill:none;stroke:#333333;stroke-width:0.25"
             inkscape:connector-curvature="0"
             d="M 0,0 C -124.44,-142.9 -73.305,-284.51 -18.396,-371.92"
             id="path354" /></g><g
           transform="translate(98.487,372.04)"
           id="g356"><path
             style="fill:none;stroke:#333333;stroke-width:0.25"
             inkscape:connector-curvature="0"
             d="M 0,0 C -120.78,-146.55 -65.937,-289.24 -3.097,-372.04"
             id="path358" /></g><g
           transform="translate(93.615,372.15)"
           id="g360"><path
             style="fill:none;stroke:#333333;stroke-width:0.25"
             inkscape:connector-curvature="0"
             d="M 0,0 C -117.13,-150.2 -58.567,-293.97 12.203,-372.15"
             id="path362" /></g><g
           transform="translate(88.743,372.27)"
           id="g364"><path
             style="fill:none;stroke:#333333;stroke-width:0.25"
             inkscape:connector-curvature="0"
             d="M 0,0 C -113.47,-153.86 -51.199,-298.7 27.503,-372.27"
             id="path366" /></g><g
           transform="translate(83.871,372.38)"
           id="g368"><path
             style="fill:none;stroke:#333333;stroke-width:0.25"
             inkscape:connector-curvature="0"
             d="M 0,0 C -109.82,-157.51 -43.829,-303.44 42.804,-372.38"
             id="path370" /></g><g
           transform="translate(79,372.5)"
           id="g372"><path
             style="fill:none;stroke:#333333;stroke-width:0.25"
             inkscape:connector-curvature="0"
             d="M 0,0 C -106.17,-161.17 -36.461,-308.17 58.103,-372.5"
             id="path374" /></g><g
           transform="translate(74.128,372.61)"
           id="g376"><path
             style="fill:none;stroke:#333333;stroke-width:0.25"
             inkscape:connector-curvature="0"
             d="M 0,0 C -102.51,-164.82 -29.092,-312.9 73.402,-372.61"
             id="path378" /></g><g
           transform="translate(69.256,372.73)"
           id="g380"><path
             style="fill:none;stroke:#333333;stroke-width:0.25"
             inkscape:connector-curvature="0"
             d="M 0,0 C -98.859,-168.47 -21.724,-317.63 88.702,-372.73"
             id="path382" /></g><g
           transform="translate(64.385,372.85)"
           id="g384"><path
             style="fill:none;stroke:#333333;stroke-width:0.25"
             inkscape:connector-curvature="0"
             d="M 0,0 C -95.205,-172.13 -14.355,-322.36 104,-372.84"
             id="path386" /></g><g
           transform="translate(59.513,372.96)"
           id="g388"><path
             style="fill:none;stroke:#333333;stroke-width:0.25"
             inkscape:connector-curvature="0"
             d="M 0,0 C -91.551,-175.78 -6.986,-327.09 119.3,-372.96"
             id="path390" /></g><g
           transform="translate(54.641,373.08)"
           id="g392"><path
             style="fill:none;stroke:#333333;stroke-width:0.25"
             inkscape:connector-curvature="0"
             d="M 0,0 C -87.897,-179.44 0.383,-331.82 134.6,-373.08"
             id="path394" /></g><g
           transform="translate(49.769,373.19)"
           id="g396"><path
             style="fill:none;stroke:#333333;stroke-width:0.25"
             inkscape:connector-curvature="0"
             d="M 0,0 C -84.243,-183.09 7.752,-336.55 149.9,-373.19"
             id="path398" /></g><g
           transform="translate(44.897,373.31)"
           id="g400"><path
             style="fill:none;stroke:#333333;stroke-width:0.25"
             inkscape:connector-curvature="0"
             d="M 0,0 C -80.589,-186.74 15.121,-341.28 165.2,-373.31"
             id="path402" /></g><g
           transform="translate(40.025,373.42)"
           id="g404"><path
             style="fill:none;stroke:#333333;stroke-width:0.25"
             inkscape:connector-curvature="0"
             d="M 0,0 C -76.936,-190.4 22.489,-346.01 180.5,-373.42"
             id="path406" /></g><g
           transform="translate(35.153,373.54)"
           id="g408"><path
             style="fill:none;stroke:#333333;stroke-width:0.25"
             inkscape:connector-curvature="0"
             d="M 0,0 C -73.281,-194.05 29.858,-350.74 195.8,-373.54"
             id="path410" /></g><g
           transform="translate(30.282,373.65)"
           id="g412"><path
             style="fill:none;stroke:#333333;stroke-width:0.25"
             inkscape:connector-curvature="0"
             d="M 0,0 C -69.627,-197.7 37.226,-355.47 211.1,-373.65"
             id="path414" /></g><g
           transform="translate(25.41,373.77)"
           id="g416"><path
             style="fill:none;stroke:#333333;stroke-width:0.25"
             inkscape:connector-curvature="0"
             d="M 0,0 C -65.975,-201.36 44.595,-360.2 226.4,-373.77"
             id="path418" /></g><g
           transform="translate(20.538,373.88)"
           id="g420"><path
             style="fill:none;stroke:#333333;stroke-width:0.25"
             inkscape:connector-curvature="0"
             d="M 0,0 C -62.32,-205.01 51.964,-364.93 241.7,-373.88"
             id="path422" /></g><g
           transform="translate(15.666,374)"
           id="g424"><path
             style="fill:none;stroke:#333333;stroke-width:0.25"
             inkscape:connector-curvature="0"
             d="M 0,0 C -58.667,-208.67 59.333,-369.66 257,-374"
             id="path426" /></g><g
           transform="translate(1,52.998)"
           id="g428"><path
             style="fill:none;stroke:#333333;stroke-width:0.25"
             inkscape:connector-curvature="0"
             d="M 0,0 C 229.68,-55.091 374.67,-43.497 499,-52.036"
             id="path430" /></g><g
           transform="translate(1.021,50.959)"
           id="g432"><path
             style="fill:none;stroke:#333333;stroke-width:0.25"
             inkscape:connector-curvature="0"
             d="M 0,0 C 229,-52.972 379.26,-38.962 498.98,-39.569"
             id="path434" /></g><g
           transform="translate(1.041,48.921)"
           id="g436"><path
             style="fill:none;stroke:#333333;stroke-width:0.25"
             inkscape:connector-curvature="0"
             d="M 0,0 C 228.32,-50.853 383.86,-34.426 498.96,-27.104"
             id="path438" /></g><g
           transform="translate(1.062,46.884)"
           id="g440"><path
             style="fill:none;stroke:#333333;stroke-width:0.25"
             inkscape:connector-curvature="0"
             d="M 0,0 C 227.64,-48.734 388.45,-29.892 498.94,-14.638"
             id="path442" /></g><g
           transform="translate(1.083,44.845)"
           id="g444"><path
             style="fill:none;stroke:#333333;stroke-width:0.25"
             inkscape:connector-curvature="0"
             d="M 0,0 C 226.96,-46.615 393.05,-25.355 498.92,-2.171"
             id="path446" /></g><g
           transform="translate(1.1035,42.806)"
           id="g448"><path
             style="fill:none;stroke:#333333;stroke-width:0.25"
             inkscape:connector-curvature="0"
             d="M 0,0 C 226.28,-44.496 397.64,-20.82 498.9,10.296"
             id="path450" /></g><g
           transform="translate(1.1245,40.768)"
           id="g452"><path
             style="fill:none;stroke:#333333;stroke-width:0.25"
             inkscape:connector-curvature="0"
             d="M 0,0 C 225.6,-42.377 402.24,-16.285 498.88,22.762"
             id="path454" /></g><g
           transform="translate(1.1445,38.73)"
           id="g456"><path
             style="fill:none;stroke:#333333;stroke-width:0.25"
             inkscape:connector-curvature="0"
             d="M 0,0 C 224.92,-40.259 406.83,-11.75 498.86,35.228"
             id="path458" /></g><g
           transform="translate(1.166,36.691)"
           id="g460"><path
             style="fill:none;stroke:#333333;stroke-width:0.25"
             inkscape:connector-curvature="0"
             d="M 0,0 C 224.24,-38.141 411.42,-7.215 498.83,47.693"
             id="path462" /></g><g
           transform="translate(1.187,34.652)"
           id="g464"><path
             style="fill:none;stroke:#333333;stroke-width:0.25"
             inkscape:connector-curvature="0"
             d="M 0,0 C 223.56,-36.021 416.02,-2.679 498.81,60.161"
             id="path466" /></g><g
           transform="translate(1.207,32.614)"
           id="g468"><path
             style="fill:none;stroke:#333333;stroke-width:0.25"
             inkscape:connector-curvature="0"
             d="M 0,0 C 222.88,-33.902 420.61,1.856 498.79,72.628"
             id="path470" /></g><g
           transform="translate(1.2275,30.576)"
           id="g472"><path
             style="fill:none;stroke:#333333;stroke-width:0.25"
             inkscape:connector-curvature="0"
             d="M 0,0 C 222.2,-31.783 425.21,6.392 498.77,85.094"
             id="path474" /></g><g
           transform="translate(1.249,28.537)"
           id="g476"><path
             style="fill:none;stroke:#333333;stroke-width:0.25"
             inkscape:connector-curvature="0"
             d="M 0,0 C 221.52,-29.664 429.8,10.928 498.75,97.561"
             id="path478" /></g><g
           transform="translate(1.2695,26.499)"
           id="g480"><path
             style="fill:none;stroke:#333333;stroke-width:0.25"
             inkscape:connector-curvature="0"
             d="M 0,0 C 220.84,-27.546 434.4,15.462 498.73,110.03"
             id="path482" /></g><g
           transform="translate(1.29,24.461)"
           id="g484"><path
             style="fill:none;stroke:#333333;stroke-width:0.25"
             inkscape:connector-curvature="0"
             d="M 0,0 C 220.16,-25.427 438.99,19.997 498.71,122.49"
             id="path486" /></g><g
           transform="translate(1.3105,22.422)"
           id="g488"><path
             style="fill:none;stroke:#333333;stroke-width:0.25"
             inkscape:connector-curvature="0"
             d="M 0,0 C 219.48,-23.308 443.59,24.533 498.69,134.96"
             id="path490" /></g><g
           transform="translate(1.332,20.384)"
           id="g492"><path
             style="fill:none;stroke:#333333;stroke-width:0.25"
             inkscape:connector-curvature="0"
             d="M 0,0 C 218.8,-21.188 448.18,29.068 498.67,147.42"
             id="path494" /></g><g
           transform="translate(1.3525,18.346)"
           id="g496"><path
             style="fill:none;stroke:#333333;stroke-width:0.25"
             inkscape:connector-curvature="0"
             d="M 0,0 C 218.12,-19.07 452.78,33.604 498.65,159.89"
             id="path498" /></g><g
           transform="translate(1.373,16.307)"
           id="g500"><path
             style="fill:none;stroke:#333333;stroke-width:0.25"
             inkscape:connector-curvature="0"
             d="M 0,0 C 217.44,-16.95 457.37,38.14 498.63,172.36"
             id="path502" /></g><g
           transform="translate(1.3936,14.269)"
           id="g504"><path
             style="fill:none;stroke:#333333;stroke-width:0.25"
             inkscape:connector-curvature="0"
             d="M 0,0 C 216.76,-14.832 461.96,42.675 498.61,184.82"
             id="path506" /></g><g
           transform="translate(1.4146,12.23)"
           id="g508"><path
             style="fill:none;stroke:#333333;stroke-width:0.25"
             inkscape:connector-curvature="0"
             d="M 0,0 C 216.08,-12.714 466.56,47.21 498.58,197.29"
             id="path510" /></g><g
           transform="translate(1.4355,10.191)"
           id="g512"><path
             style="fill:none;stroke:#333333;stroke-width:0.25"
             inkscape:connector-curvature="0"
             d="M 0,0 C 215.4,-10.594 471.15,51.745 498.56,209.76"
             id="path514" /></g><g
           transform="translate(1.4561,8.1533)"
           id="g516"><path
             style="fill:none;stroke:#333333;stroke-width:0.25"
             inkscape:connector-curvature="0"
             d="M 0,0 C 214.72,-8.476 475.75,56.28 498.54,222.22"
             id="path518" /></g><g
           transform="translate(1.4771,6.1152)"
           id="g520"><path
             style="fill:none;stroke:#333333;stroke-width:0.25"
             inkscape:connector-curvature="0"
             d="M 0,0 C 214.04,-6.356 480.34,60.815 498.52,234.69"
             id="path522" /></g><g
           transform="translate(1.4976,4.0771)"
           id="g524"><path
             style="fill:none;stroke:#333333;stroke-width:0.25"
             inkscape:connector-curvature="0"
             d="M 0,0 C 213.36,-4.238 484.94,65.351 498.5,247.16"
             id="path526" /></g><g
           transform="translate(1.5186,2.0381)"
           id="g528"><path
             style="fill:none;stroke:#333333;stroke-width:0.25"
             inkscape:connector-curvature="0"
             d="M 0,0 C 212.68,-2.118 489.53,69.887 498.48,259.62"
             id="path530" /></g><g
           transform="translate(1.5391)"
           id="g532"><path
             style="fill:none;stroke:#333333;stroke-width:0.25"
             inkscape:connector-curvature="0"
             d="M 0,0 C 212,0 494.13,74.422 498.46,272.09"
             id="path534" /></g></g></g></g><metadata
     id="metadata272"><rdf:RDF><cc:Work><dc:format>image/svg+xml</dc:format><dc:type
           rdf:resource="http://purl.org/dc/dcmitype/StillImage" /><cc:license
           rdf:resource="http://creativecommons.org/publicdomain/zero/1.0/" /><dc:publisher><cc:Agent
             rdf:about="http://openclipart.org/"><dc:title>Openclipart</dc:title></cc:Agent></dc:publisher><dc:title></dc:title><dc:date>2011-02-19T03:54:39</dc:date><dc:description>Wallpaper Linux</dc:description><dc:source>https://openclipart.org/detail/120859/wallpaper-linux-by-leandrosciola</dc:source><dc:creator><cc:Agent><dc:title>leandrosciola</dc:title></cc:Agent></dc:creator><dc:subject><rdf:Bag><rdf:li>Linux</rdf:li><rdf:li>Wallpaper</rdf:li><rdf:li>Wallpaper Linux</rdf:li><rdf:li>papel de parede</rdf:li></rdf:Bag></dc:subject></cc:Work><cc:License
         rdf:about="http://creativecommons.org/publicdomain/zero/1.0/"><cc:permits
           rdf:resource="http://creativecommons.org/ns#Reproduction" /><cc:permits
           rdf:resource="http://creativecommons.org/ns#Distribution" /><cc:permits
           rdf:resource="http://creativecommons.org/ns#DerivativeWorks" /></cc:License></rdf:RDF></metadata><path
     id="path3312"
     style="opacity:0.98000004;fill:url(#radialGradient5594);fill-opacity:1;fill-rule:evenodd;stroke-width:2.74152875"
     d="m 948.21144,377.26284 c -23.0014,0.60314 -45.811,5.51047 -67.71578,13.92697 -90.63494,32.76126 -132.79965,105.38436 -167.80897,183.87433 4.19454,29.58107 13.59798,57.43507 27.30563,82.71187 l 40.93102,-65.0564 c 50.36188,-57.70921 178.9944,21.1372 202.3522,36.9558 -58.4768,-76.1871 -177.34946,-78.6819 -217.32095,-73.61007 -27.7991,-28.3474 15.07841,-79.12052 59.13478,-110.53844 0.74021,32.67903 2.22064,64.9194 17.95701,87.78375 47.53806,29.5811 102.72506,11.73375 141.57256,34.26911 53.54196,45.34485 93.48606,105.19245 120.70946,170.49565 10.0066,-7.5118 19.3552,-15.7364 28.1007,-24.6189 -11.7064,-43.9193 -36.2979,-87.1806 -84.0279,-123.67036 -14.4479,-70.34763 7.5392,-110.67552 52.4454,-141.05166 23.6869,-13.32383 58.0108,-20.25989 108.1534,-18.20375 -77.366,-29.03279 -111.032,-18.06667 -148.0152,-15.51705 -36.3801,-27.52495 -75.41936,-38.7378 -113.77336,-37.75085 z m -15.2429,30.23906 c 15.9831,0 28.8957,12.94002 28.8957,28.92313 0,15.98311 -12.9126,28.89571 -28.8957,28.89571 -15.9831,0 -28.8957,-12.9126 -28.8957,-28.89571 0,-15.98311 12.9126,-28.92313 28.8957,-28.92313 z m 160.87286,23.82389 c 5.2089,-0.13708 10.4726,-0.0822 16.0379,0 -27.5798,3.5914 -60.67,12.52878 -65.8241,31.58241 -11.5418,29.66334 -51.59546,7.26505 -35.6124,-6.41518 20.4792,-17.71028 48.7992,-24.23511 85.3986,-25.16723 z M 957.31334,292.68668 c -136.33627,0 -247.01178,110.48361 -247.31335,246.79241 5.70238,-12.99484 12.1998,-25.71554 19.5471,-38.025 18.39566,-109.14026 113.44446,-192.45531 227.76625,-192.45531 72.81496,0 137.78916,33.77563 180.14576,86.46781 7.4844,0.68538 15.0784,1.69975 22.4805,2.93344 C 1115.2253,334.49499 1041.204,292.68668 957.31334,292.68668 Z m 211.72816,154.70446 c 12.4191,28.34741 19.273,59.7105 19.273,92.60884 0,52.69223 -17.9022,101.10763 -47.6478,139.98243 1.3708,3.7559 2.7141,7.5941 3.7559,11.5144 1.453,2.13841 2.5496,4.1398 3.4817,6.1685 35.4206,-42.82269 56.7223,-97.7903 56.7223,-157.66533 0,-32.51453 -6.4975,-63.63088 -17.9296,-92.06053 -3.5366,-0.0548 -7.128,-0.16449 -10.4178,-0.27415 -2.44,-0.21932 -4.8251,-0.24674 -7.2377,-0.27416 z M 759.512,659.11941 c -2.98827,5.675 -5.94912,11.1032 -9.10187,16.3121 44.19344,67.4142 120.35311,111.8818 206.90321,111.8818 48.66206,0 93.97956,-14.256 132.22386,-38.5459 -2.1932,-4.4139 -3.9204,-9.8695 -5.8669,-15.5171 -36.3527,23.8513 -79.6688,37.7509 -126.35696,37.7509 -83.86341,0 -157.33638,-44.9337 -197.80134,-111.8818 z"
     inkscape:connector-curvature="0" /></svg>