<svg width="1920" height="1080" version="1.1" viewBox="0 0 1800 1012.5" xmlns="http://www.w3.org/2000/svg" xmlns:osb="http://www.openswatchbook.org/uri/2009/osb" xmlns:xlink="http://www.w3.org/1999/xlink">
    <defs>
        <filter id="filter1703" x="-.0088720974" y="-.018534396" width="1.0177442" height="1.0370688" color-interpolation-filters="sRGB">
            <feGaussianBlur stdDeviation="1.0665"/>
        </filter>
        <filter id="filter1729" x="-.0071081254" y="-.038487304" width="1.0142163" height="1.0769746" color-interpolation-filters="sRGB">
            <feGaussianBlur stdDeviation="1.1546191"/>
        </filter>
    </defs>
    <style type="text/css">.st0{display:none;}
	.st1{display:inline;}
	.st2{fill:#303F9F;}
	.st3{fill:#3F51B5;}
	.st4{fill:#448AFF;}
	.st5{fill:#FF5722;}</style>
    <path d="m0 506.25v-506.25h1800v1012.5h-1800z" fill="#d9d9d9" stroke-width=".46875"/>
    <g>
        <path d="m5.15625e-5 506.25v-506.24999h1799.9998v1012.5h-1799.9998zm1009.1248 103.03397c0-0.25627-2.5756-2.05078-5.7236-3.9878l-5.72369-3.52176 0.65503-5.29346c0.87722-7.08956 4.82076-52.03509 6.28816-71.66845 2.2203-29.70483 3.1887-67.59747 2.2166-86.71781-0.5305-10.43224-0.7383-19.19389-0.4618-19.47038 2.0961-2.09615 21.8367 16.75206 54.3643 51.90694 10.7346 11.60156 19.9657 21.09375 20.5137 21.09375 1.602 0 1.1593-7.8233-1.2356-21.8318-7.6043-44.4801-26.2173-93.07259-48.4296-126.43376-16.3116-24.49875-32.39645-42.52442-61.69731-69.14157-40.80923-37.07137-48.14568-44.71037-59.52618-61.98112-7.88391-11.96452-13.19522-23.37202-14.40525-30.93917-1.45125-9.07544-6.54732-1.92199-8.58366 12.04888-1.02989 7.06648-1.02277 11.88983 0.0314 21.37285 2.4704 22.21635 7.68506 37.95226 24.09792 72.71819 26.3535 55.82237 32.56425 73.37294 37.62117 106.3125 2.76652 18.01991 2.77017 58.52525 9e-3 76.27922-2.64385 16.98736-6.95232 33.19983-10.66275 40.12312-4.51711 8.4285-8.04422 9.86288-22.72097 9.24-13.51763-0.57361-22.73461-3.07921-36.56255-9.93932-23.74786-11.78161-40.44422-30.87689-47.0655-53.82802-5.82839-20.20261-6.39487-36.12705-2.90161-81.5625 1.57177-20.4432 2.63602-48.39938 3.25477-85.5 0.68704-41.19728 1.37779-58.10929 2.73403-66.9366 5.97839-38.9151 15.38376-58.0986 30.66234-62.54022 6.78727-1.97309 11.65833-1.56411 22.35366 1.87682 5.90419 1.89949 9.56414 2.14568 28.12509 1.89183 11.73563-0.1605 22.72974 0.0975 24.4313 0.57336 4.70742 1.31646 3.94298-1.48327-1.86722-6.83902-6.00159-5.53199-13.05919-9.17795-24.27544-12.54055-10.9754-3.2904-15.26667-5.55368-22.63308-11.93695-9.88336-8.56427-16.56037-11.17367-28.59168-11.17367-9.1763 0-10.86028 0.35033-17.57536 3.65618-9.31022 4.58339-15.84197 11.55777-20.64736 22.0464-7.94142 17.33359-9.86096 35.09452-8.84053 81.79899l0.75243 34.43904-5.86359 10.40156c-24.5018 43.46442-42.42098 109.86719-52.43653 194.31243-1.62459 13.69753-2.7802 26.86003-2.56805 29.24999 0.37608 4.23633 0.53953 4.02057 6.50831-8.59209 7.94668-16.79203 17.18743-34.71615 28.70958-55.6875 5.09939-9.28125 11.86946-22.06407 15.04467-28.40625 3.17518-6.34219 6.07168-11.53125 6.4366-11.53125 0.36497 0 0.3045 11.26406-0.13444 25.03125-1.19466 37.46864 1.63852 54.97997 12.47559 77.109 9.42807 19.2518 31.91063 39.55959 70.25494 63.45886 20.71824 12.91331 25.5405 16.22653 24.71785 16.98258-0.30825 0.28326-6.88852-0.65939-14.62294-2.09475s-20.39067-3.36699-28.125-4.29244c-33.4808-4.00627-33.85753-3.16153-1.6875 3.78389 33.98526 7.33734 75.27309 18.83072 116.9999 32.56955 12.98905 4.27673 16.31255 5.11429 16.31255 4.11103zm-134.37356-462.15929c-3.61476-5.16078-0.45665-12.12468 5.49844-12.12468 3.22064 0 8.01295 3.99985 9.02935 7.53621 1.77464 6.17459-10.66491 10.10352-14.52779 4.58847z" fill="#3272a1" stroke-width=".46875"/>
        <g transform="scale(.46875)" filter="url(#filter1729)" opacity=".2" stroke-width="1px" aria-label="Powered by">
            <path d="m1481.4528 1285.0451q10.08 0 14.688 3.96t4.608 11.16q0 4.248-1.944 7.992-1.872 3.672-6.408 5.976-4.464 2.304-12.168 2.304h-5.904v20.016h-6.48v-51.408zm-0.576 5.544h-6.552v20.304h5.184q7.344 0 10.944-2.376t3.6-8.064q0-4.968-3.168-7.416t-10.008-2.448z"/>
            <path d="m1544.1266 1317.0851q0 9.576-4.896 14.832-4.824 5.256-13.104 5.256-5.112 0-9.144-2.304-3.96-2.376-6.264-6.84-2.304-4.536-2.304-10.944 0-9.576 4.824-14.76t13.104-5.184q5.256 0 9.216 2.376 4.032 2.304 6.264 6.768 2.304 4.392 2.304 10.8zm-29.16 0q0 6.84 2.664 10.872 2.736 3.96 8.64 3.96 5.832 0 8.568-3.96 2.736-4.032 2.736-10.872t-2.736-10.728-8.64-3.888-8.568 3.888-2.664 10.728z"/>
            <path d="m1584.2981 1336.3811-6.624-21.744q-0.936-2.952-1.656-5.76-0.648-2.88-1.008-4.464h-0.288q-0.288 1.584-0.936 4.464-0.648 2.808-1.656 5.832l-6.912 21.672h-7.2l-10.584-38.592h6.552l5.328 20.592q0.792 3.096 1.512 6.264t1.008 5.256h0.288q0.288-1.224 0.648-3.024 0.432-1.8 0.936-3.744 0.504-2.016 1.008-3.6l6.84-21.744h6.912l6.624 21.744q0.792 2.448 1.512 5.328 0.792 2.88 1.08 4.968h0.288q0.216-1.8 0.936-4.968 0.792-3.168 1.656-6.48l5.4-20.592h6.48l-10.728 38.592z"/>
            <path d="m1624.1973 1297.1411q4.968 0 8.496 2.16 3.6 2.16 5.472 6.12 1.944 3.888 1.944 9.144v3.816h-26.424q0.144 6.552 3.312 10.008 3.24 3.384 9 3.384 3.672 0 6.48-0.648 2.88-0.72 5.904-2.016v5.544q-2.952 1.296-5.832 1.872-2.88 0.648-6.84 0.648-5.472 0-9.72-2.232-4.176-2.232-6.552-6.624-2.304-4.464-2.304-10.872 0-6.336 2.088-10.872 2.16-4.536 5.976-6.984 3.888-2.448 9-2.448zm-0.072 5.184q-4.536 0-7.2 2.952-2.592 2.88-3.096 8.064h19.656q-0.072-4.896-2.304-7.92-2.232-3.096-7.056-3.096z"/>
            <path d="m1667.934 1297.1411q1.08 0 2.304 0.144 1.296 0.072 2.232 0.288l-0.792 5.832q-0.936-0.216-2.088-0.36-1.08-0.144-2.088-0.144-2.952 0-5.544 1.656-2.592 1.584-4.176 4.536-1.512 2.88-1.512 6.768v20.592h-6.336v-38.592h5.184l0.72 7.056h0.288q1.872-3.168 4.824-5.472t6.984-2.304z"/>
            <path d="m1693.1036 1297.1411q4.968 0 8.496 2.16 3.6 2.16 5.472 6.12 1.944 3.888 1.944 9.144v3.816h-26.424q0.144 6.552 3.312 10.008 3.24 3.384 9 3.384 3.672 0 6.48-0.648 2.88-0.72 5.904-2.016v5.544q-2.952 1.296-5.832 1.872-2.88 0.648-6.84 0.648-5.472 0-9.72-2.232-4.176-2.232-6.552-6.624-2.304-4.464-2.304-10.872 0-6.336 2.088-10.872 2.16-4.536 5.976-6.984 3.888-2.448 9-2.448zm-0.072 5.184q-4.536 0-7.2 2.952-2.592 2.88-3.096 8.064h19.656q-0.072-4.896-2.304-7.92-2.232-3.096-7.056-3.096z"/>
            <path d="m1732.5202 1337.1731q-7.2 0-11.52-4.968-4.32-5.04-4.32-14.976t4.32-14.976q4.392-5.112 11.592-5.112 4.464 0 7.272 1.656 2.88 1.656 4.68 4.032h0.432q-0.072-0.936-0.288-2.736-0.144-1.872-0.144-2.952v-15.408h6.336v54.72h-5.112l-0.936-5.184h-0.288q-1.728 2.448-4.608 4.176t-7.416 1.728zm1.008-5.256q6.12 0 8.568-3.312 2.52-3.384 2.52-10.152v-1.152q0-7.2-2.376-11.016-2.376-3.888-8.784-3.888-5.112 0-7.704 4.104-2.52 4.032-2.52 10.872 0 6.912 2.52 10.728 2.592 3.816 7.776 3.816z"/>
            <path d="m1788.1762 1281.7331v13.32q0 2.448-0.144 4.608-0.072 2.088-0.216 3.312h0.36q1.656-2.448 4.536-4.104t7.416-1.656q7.2 0 11.52 5.04 4.392 4.968 4.392 14.904t-4.392 14.976-11.52 5.04q-4.536 0-7.416-1.656t-4.536-3.96h-0.504l-1.296 4.896h-4.536v-54.72zm10.872 20.736q-6.12 0-8.496 3.528t-2.376 10.944v0.288q0 7.128 2.304 10.944 2.376 3.744 8.712 3.744 5.184 0 7.704-3.816 2.592-3.816 2.592-11.016 0-14.616-10.44-14.616z"/>
            <path d="m1818.6828 1297.8611h6.768l8.352 21.96q1.08 2.88 1.944 5.544 0.864 2.592 1.296 4.968h0.288q0.432-1.8 1.368-4.68 0.936-2.952 1.944-5.904l7.848-21.888h6.84l-16.632 43.92q-2.016 5.472-5.256 8.712-3.168 3.24-8.784 3.24-1.728 0-3.024-0.216-1.296-0.144-2.232-0.36v-5.04q0.792 0.144 1.872 0.288 1.152 0.144 2.376 0.144 3.312 0 5.328-1.872 2.088-1.872 3.24-4.968l2.016-5.112z"/>
        </g>
        <g transform="scale(.46875)" fill="#d9d9d9" stroke-width="1px" aria-label="Powered by">
            <path d="m1481.4528 1280.3576q10.08 0 14.688 3.96t4.608 11.16q0 4.248-1.944 7.992-1.872 3.672-6.408 5.976-4.464 2.304-12.168 2.304h-5.904v20.016h-6.48v-51.408zm-0.576 5.544h-6.552v20.304h5.184q7.344 0 10.944-2.376t3.6-8.064q0-4.968-3.168-7.416t-10.008-2.448z"/>
            <path d="m1544.1266 1312.3976q0 9.576-4.896 14.832-4.824 5.256-13.104 5.256-5.112 0-9.144-2.304-3.96-2.376-6.264-6.84-2.304-4.536-2.304-10.944 0-9.576 4.824-14.76t13.104-5.184q5.256 0 9.216 2.376 4.032 2.304 6.264 6.768 2.304 4.392 2.304 10.8zm-29.16 0q0 6.84 2.664 10.872 2.736 3.96 8.64 3.96 5.832 0 8.568-3.96 2.736-4.032 2.736-10.872t-2.736-10.728-8.64-3.888-8.568 3.888-2.664 10.728z"/>
            <path d="m1584.2981 1331.6936-6.624-21.744q-0.936-2.952-1.656-5.76-0.648-2.88-1.008-4.464h-0.288q-0.288 1.584-0.936 4.464-0.648 2.808-1.656 5.832l-6.912 21.672h-7.2l-10.584-38.592h6.552l5.328 20.592q0.792 3.096 1.512 6.264t1.008 5.256h0.288q0.288-1.224 0.648-3.024 0.432-1.8 0.936-3.744 0.504-2.016 1.008-3.6l6.84-21.744h6.912l6.624 21.744q0.792 2.448 1.512 5.328 0.792 2.88 1.08 4.968h0.288q0.216-1.8 0.936-4.968 0.792-3.168 1.656-6.48l5.4-20.592h6.48l-10.728 38.592z"/>
            <path d="m1624.1973 1292.4536q4.968 0 8.496 2.16 3.6 2.16 5.472 6.12 1.944 3.888 1.944 9.144v3.816h-26.424q0.144 6.552 3.312 10.008 3.24 3.384 9 3.384 3.672 0 6.48-0.648 2.88-0.72 5.904-2.016v5.544q-2.952 1.296-5.832 1.872-2.88 0.648-6.84 0.648-5.472 0-9.72-2.232-4.176-2.232-6.552-6.624-2.304-4.464-2.304-10.872 0-6.336 2.088-10.872 2.16-4.536 5.976-6.984 3.888-2.448 9-2.448zm-0.072 5.184q-4.536 0-7.2 2.952-2.592 2.88-3.096 8.064h19.656q-0.072-4.896-2.304-7.92-2.232-3.096-7.056-3.096z"/>
            <path d="m1667.934 1292.4536q1.08 0 2.304 0.144 1.296 0.072 2.232 0.288l-0.792 5.832q-0.936-0.216-2.088-0.36-1.08-0.144-2.088-0.144-2.952 0-5.544 1.656-2.592 1.584-4.176 4.536-1.512 2.88-1.512 6.768v20.592h-6.336v-38.592h5.184l0.72 7.056h0.288q1.872-3.168 4.824-5.472t6.984-2.304z"/>
            <path d="m1693.1036 1292.4536q4.968 0 8.496 2.16 3.6 2.16 5.472 6.12 1.944 3.888 1.944 9.144v3.816h-26.424q0.144 6.552 3.312 10.008 3.24 3.384 9 3.384 3.672 0 6.48-0.648 2.88-0.72 5.904-2.016v5.544q-2.952 1.296-5.832 1.872-2.88 0.648-6.84 0.648-5.472 0-9.72-2.232-4.176-2.232-6.552-6.624-2.304-4.464-2.304-10.872 0-6.336 2.088-10.872 2.16-4.536 5.976-6.984 3.888-2.448 9-2.448zm-0.072 5.184q-4.536 0-7.2 2.952-2.592 2.88-3.096 8.064h19.656q-0.072-4.896-2.304-7.92-2.232-3.096-7.056-3.096z"/>
            <path d="m1732.5202 1332.4856q-7.2 0-11.52-4.968-4.32-5.04-4.32-14.976t4.32-14.976q4.392-5.112 11.592-5.112 4.464 0 7.272 1.656 2.88 1.656 4.68 4.032h0.432q-0.072-0.936-0.288-2.736-0.144-1.872-0.144-2.952v-15.408h6.336v54.72h-5.112l-0.936-5.184h-0.288q-1.728 2.448-4.608 4.176t-7.416 1.728zm1.008-5.256q6.12 0 8.568-3.312 2.52-3.384 2.52-10.152v-1.152q0-7.2-2.376-11.016-2.376-3.888-8.784-3.888-5.112 0-7.704 4.104-2.52 4.032-2.52 10.872 0 6.912 2.52 10.728 2.592 3.816 7.776 3.816z"/>
            <path d="m1788.1762 1277.0456v13.32q0 2.448-0.144 4.608-0.072 2.088-0.216 3.312h0.36q1.656-2.448 4.536-4.104t7.416-1.656q7.2 0 11.52 5.04 4.392 4.968 4.392 14.904t-4.392 14.976-11.52 5.04q-4.536 0-7.416-1.656t-4.536-3.96h-0.504l-1.296 4.896h-4.536v-54.72zm10.872 20.736q-6.12 0-8.496 3.528t-2.376 10.944v0.288q0 7.128 2.304 10.944 2.376 3.744 8.712 3.744 5.184 0 7.704-3.816 2.592-3.816 2.592-11.016 0-14.616-10.44-14.616z"/>
            <path d="m1818.6828 1293.1736h6.768l8.352 21.96q1.08 2.88 1.944 5.544 0.864 2.592 1.296 4.968h0.288q0.432-1.8 1.368-4.68 0.936-2.952 1.944-5.904l7.848-21.888h6.84l-16.632 43.92q-2.016 5.472-5.256 8.712-3.168 3.24-8.784 3.24-1.728 0-3.024-0.216-1.296-0.144-2.232-0.36v-5.04q0.792 0.144 1.872 0.288 1.152 0.144 2.376 0.144 3.312 0 5.328-1.872 2.088-1.872 3.24-4.968l2.016-5.112z"/>
        </g>
    </g>
    <g transform="matrix(.62051672 0 0 .62051672 694.32975 190.71788)" filter="url(#filter1703)" opacity=".2">
        <path class="st5" d="m187.4 765.4c0-20.6 10.8-32.4 30.7-32.4s30.7 11.8 30.7 32.4v66.9c0 7.2-1.3 13.2-3.9 18 0.9 2.4 2.4 2.8 5.7 2.8h1.8v18h-2.8c-9 0-14.7-3.3-17.5-8.8-4 1.5-8.8 2.4-14.2 2.4-19.9 0-30.7-11.8-30.7-32.4v-66.9zm20.2 68.2c0 9.2 4 12.7 10.5 12.7 6.4 0 10.5-3.5 10.5-12.7v-69.5c0-9.2-4-12.7-10.5-12.7-6.4 0-10.5 3.5-10.5 12.7z"/>
        <path class="st5" d="m260.8 821.4 36.8-87h22.1v87h9.6v18.4h-9.6v23.3h-19.9v-23.3h-39zm38.9 0v-48.4l-20.4 48.4z"/>
        <path class="st2" d="m340.4 765.4c0-20.6 10.8-32.4 30.7-32.4s30.7 11.8 30.7 32.4v66.9c0 20.6-10.8 32.4-30.7 32.4s-30.7-11.8-30.7-32.4zm20.2 68.2c0 9.2 4 12.7 10.5 12.7 6.4 0 10.5-3.5 10.5-12.7v-69.5c0-9.2-4-12.7-10.5-12.7-6.4 0-10.5 3.5-10.5 12.7z"/>
        <path class="st2" d="m445.7 733c19.7 0 29.8 11.8 29.8 32.4v4h-19.1v-5.3c0-9.2-3.7-12.7-10.1-12.7s-10.1 3.5-10.1 12.7c0 26.5 39.5 31.4 39.5 68.2 0 20.6-10.3 32.4-30.2 32.4s-30.2-11.8-30.2-32.4v-7.9h19.1v9.2c0 9.2 4 12.5 10.5 12.5s10.5-3.3 10.5-12.5c0-26.5-39.5-31.4-39.5-68.2 0-20.6 10.1-32.4 29.8-32.4z"/>
    </g>
    <g transform="matrix(.62051672 0 0 .62051672 694.32975 188.52062)">
        <path class="st5" d="m187.4 765.4c0-20.6 10.8-32.4 30.7-32.4s30.7 11.8 30.7 32.4v66.9c0 7.2-1.3 13.2-3.9 18 0.9 2.4 2.4 2.8 5.7 2.8h1.8v18h-2.8c-9 0-14.7-3.3-17.5-8.8-4 1.5-8.8 2.4-14.2 2.4-19.9 0-30.7-11.8-30.7-32.4v-66.9zm20.2 68.2c0 9.2 4 12.7 10.5 12.7 6.4 0 10.5-3.5 10.5-12.7v-69.5c0-9.2-4-12.7-10.5-12.7-6.4 0-10.5 3.5-10.5 12.7z" fill="#ff5722"/>
        <path class="st5" d="m260.8 821.4 36.8-87h22.1v87h9.6v18.4h-9.6v23.3h-19.9v-23.3h-39zm38.9 0v-48.4l-20.4 48.4z" fill="#ff5722"/>
        <path class="st2" d="m340.4 765.4c0-20.6 10.8-32.4 30.7-32.4s30.7 11.8 30.7 32.4v66.9c0 20.6-10.8 32.4-30.7 32.4s-30.7-11.8-30.7-32.4zm20.2 68.2c0 9.2 4 12.7 10.5 12.7 6.4 0 10.5-3.5 10.5-12.7v-69.5c0-9.2-4-12.7-10.5-12.7-6.4 0-10.5 3.5-10.5 12.7z" fill="#303f9f"/>
        <path class="st2" d="m445.7 733c19.7 0 29.8 11.8 29.8 32.4v4h-19.1v-5.3c0-9.2-3.7-12.7-10.1-12.7s-10.1 3.5-10.1 12.7c0 26.5 39.5 31.4 39.5 68.2 0 20.6-10.3 32.4-30.2 32.4s-30.2-11.8-30.2-32.4v-7.9h19.1v9.2c0 9.2 4 12.5 10.5 12.5s10.5-3.3 10.5-12.5c0-26.5-39.5-31.4-39.5-68.2 0-20.6 10.1-32.4 29.8-32.4z" fill="#303f9f"/>
    </g>
</svg>
