<svg width="1920" height="1080" version="1.1" viewBox="0 0 507.99999 285.75001" xmlns="http://www.w3.org/2000/svg">
    <g transform="translate(0,-11.249983)">
        <rect y="11.249983" width="508" height="285.75"/>
        <g transform="translate(4.9999999e-6,2.9999999e-6)" fill="#90a4ae">
            <g stroke-width=".11394115">
                <path class="st2" d="m242.41218 157.13303h-26.11531c1.45845 18.49265 16.21383 33.24802 34.70647 34.70647v-26.35459c-4.14745-1.04826-7.42896-4.25-8.59116-8.35188z"/>
                <path class="st3" d="m251.00334 142.26371v-25.85325c-18.43567 1.45845-33.15687 16.12267-34.69508 34.53556h26.01277c1.07105-4.2614 4.42092-7.61127 8.68231-8.68231z"/>
                <path class="st4" d="m265.53084 150.94602h26.17228c-1.51541-18.35592-16.15685-32.99735-34.51277-34.52417v25.93301c4.10188 1.1622 7.30363 4.4437 8.34049 8.59116z"/>
            </g>
            <rect class="st5" transform="rotate(-45)" x="62.980595" y="299.9426" width="16.236458" height="29.635809" stroke-width=".11394006"/>
        </g>
    </g>
    <style type="text/css">.st0{display:none;}</style>
</svg>
