<svg width="508mm" height="285.75mm" version="1.1" viewBox="0 0 1800.0001 1012.5" xmlns="http://www.w3.org/2000/svg">
    <defs>
        <filter id="filter4706" color-interpolation-filters="sRGB">
            <feFlood flood-color="rgb(0,0,0)" flood-opacity=".2" result="flood"/>
            <feComposite in="flood" in2="SourceGraphic" operator="in" result="composite1"/>
            <feGaussianBlur in="composite1" result="blur" stdDeviation="1"/>
            <feOffset dx="0" dy="5" result="offset"/>
            <feComposite in="SourceGraphic" in2="offset" result="composite2"/>
        </filter>
    </defs>
    <g transform="translate(5869.5485,531.55792)" stroke-width=".47433743">
        <path d="m-5869.5385-25.307868v-506.24654h1799.9802v1012.4931h-1799.9802z" fill="#90a4ae"/>
        <path d="m-5869.546 394.5647c0-57.44104 0.2093-86.25992 0.625-86.02871 0.3437 0.19116 0.625 0.64939 0.625 1.01825 0 0.87592 188.2073 170.26183 189.1805 170.26183 0.409 0 0.9174 0.25312 1.1299 0.5625 0.2569 0.37403-31.764 0.56249-95.5871 0.56249h-95.9733zm209.3727 86.09579v-0.70379c0-0.23207-22.5704-20.73518-50.1547-45.56264l-50.1533-45.14072 145.3095-130.77996 145.3094-130.78004 183.5922 165.23298c100.9756 90.8781 183.592 165.48885 183.592 165.80164s-5.0456 5.10449-11.2124 10.64827c-6.1669 5.54374-11.159 10.35043-11.0937 10.68153 0.084 0.42678-77.8078 0.64314-267.5345 0.74335-147.2093 0.0777-267.6533 0.0149-267.6533-0.14062zm552.8056-0.28089c0.2129-0.30996 0.7217-0.56353 1.1308-0.56353 0.409 0 53.9699-47.90329 119.0242-106.45172l118.2804-106.45173 80.6242 72.56052c44.3434 39.90826 80.6243 72.81482 80.6243 73.12559 0 0.31081-16.5762 15.48214-36.8361 33.71408-20.2598 18.23199-36.7831 33.41853-36.7183 33.74797 0.083 0.4221-48.1119 0.64089-163.1994 0.74069-108.964 0.0945-163.1883-0.0461-162.9301-0.42187zm343.747 0c0.2125-0.30937 0.7202-0.56249 1.1284-0.56249 0.4081 0 15.2977-13.09819 33.0877-29.10715l32.3457-29.10715 32.3456 29.10715c17.7901 16.00896 32.6796 29.10715 33.0878 29.10715 0.4081 0 0.9159 0.25312 1.1283 0.56249 0.2567 0.37368-22.0888 0.5625-66.5617 0.5625s-66.8184-0.18882-66.5618-0.5625zm150.9358 0.28125c0-0.15466-2e-4 -0.47106 0-0.70312-4e-4 -0.23202-55.4059-50.28738-123.1236-111.23411l-123.123-110.81224 145.3109-130.77946 145.311-130.77953 248.7475 223.8731c136.8111 123.13023 248.9582 223.74658 249.2159 223.59187 0.2576-0.15467 0.5426 8.13513 0.6331 18.42175l0.1647 18.70299h-271.568c-149.3623 0-271.5679-0.12762-271.5679-0.28228zm-663.7307-196.68313-183.4235-165.30443 106.2362-95.614304c58.4299-52.587766 106.5179-95.614178 106.8622-95.614178 0.8182 0 367.1838 329.73114 367.1838 330.46747 0 0.78714-212.0444 191.54709-212.8109 191.44944-0.3433-0.0441-83.1649-74.46648-184.0478-165.384zm1205.8041 142.96372c-0.4033-0.77346-27.0514-25.0728-59.2181-53.99851-32.1667-28.92576-58.4849-52.84643-58.4849-53.15702 0-0.31063 26.3182-24.2313 58.4849-53.15701 32.1667-28.92576 58.8148-53.2251 59.2181-53.99851 0.5678-1.08908 0.7691 10.87846 0.8926 53.05995 0.2871 98.15275-0.071 162.82721-0.8926 161.2511zm-1748.8964-90.24586c-26.6174-23.95725-48.6946-43.51101-49.0604-43.45283-0.4672 0.0743-0.6652-19.65393-0.6652-66.2687 0-46.57563 0.1982-66.34305 0.6645-66.26894 0.3656 0.0581 49.4428-43.79554 109.0607-97.452488 59.6178-53.656959 108.678-97.558075 109.0226-97.558075s38.8754 34.424855 85.624 76.499613l84.9975 76.49969-145.3097 130.78018c-79.9203 71.92908-145.4512 130.78022-145.6242 130.78022s-22.0924-19.60137-48.7098-43.55867zm1441.0388-187.48703c-98.569-88.71288-179.2164-161.54956-179.2164-161.8593 0-0.309777 28.5468-26.254395 63.4372-57.654821l63.4372-57.091603 179.6848 161.71625 179.6847 161.71624-63.5915 57.2347c-34.9753 31.47904-63.7328 57.23471-63.9056 57.23471-0.1727 0-80.9614-72.58329-179.5304-161.29618zm-549.9943 46.12432-59.2164-53.29718 214.0592-192.65353 214.0593-192.65356 59.3752 53.43574 59.3752 53.43571-213.9039 192.51499c-117.6472 105.88332-214.0454 192.51511-214.2181 192.51511s-26.9614-23.9838-59.5305-53.29728zm857.8518-15.88975c-0.4033-0.77345-40.5513-37.22289-89.2178-80.998727-48.6665-43.775868-88.4845-79.846272-88.4845-80.156455s39.818-36.380586 88.4845-80.156468c48.6665-43.77584 88.8145-80.22527 89.2178-80.99868 0.5657-1.08485 0.7695 17.21292 0.8917 80.060527 0.2856 146.93385-0.071 243.82348-0.8917 242.2498zm-1798.9344-223.31101c0-125.90018 0.2088-188.949 0.625-188.71747 0.3437 0.1912 0.625 0.6488 0.625 1.0169s46.757 42.75133 103.9044 94.18496l103.9044 93.515612-103.9044 93.515572c-57.1474 51.433646-103.9044 93.816876-103.9044 94.184976s-0.2813 0.82574-0.625 1.01695c-0.4162 0.23147-0.625-62.817312-0.625-188.7175zm314.3718 76.780952-85.3103-76.781087 106.5601-95.905727 106.5601-95.9057 85.3117 76.78092 85.3118 76.780948-106.5616 95.905866-106.5616 95.905856zm1026.0808-266.7653-269.8416-242.85893 29.6498-26.68055c16.3074-14.67426 29.5969-26.95018 29.532-27.2798-0.083-0.42111 20.2347-0.59931 68.319-0.59931 47.9802 0 68.4017 0.1787 68.3195 0.59783-0.064 0.32885 105.8953 96.00932 235.4661 212.62327 129.5709 116.61401 235.5834 212.27918 235.5834 212.58928 0 0.55246-126.2626 114.4672-126.875 114.4672-0.1714 0-121.7403-109.28652-270.1532-242.85899zm-1176.3687 131.50568-54.9747-49.47991 209.8317-188.98077c115.4074-103.93944 209.755-189.31443 209.6612-189.72217-0.1404-0.61096 16.3538-0.74142 93.7348-0.74142 51.6479 0 93.8349 0.1863 93.7489 0.414-0.086 0.22774 3.6387 3.8365 8.2769 8.01944l8.4329 7.6054-256.8685 231.18264-256.8684 231.18265zm1502.9282-85.09921-80.7794-72.70335 105.9841-95.34238c58.2913-52.43832 106.3141-95.97521 106.7175-96.74862 0.5637-1.08098 0.7704 32.48591 0.8935 145.12401 0.088 80.59162 0.02 146.86273-0.1519 147.26903-0.1715 0.40635-0.5422 0.61064-0.8237 0.45409-0.2816-0.1566-11.7431 9.82573-25.47 22.18291-13.727 12.35723-25.1005 22.46768-25.2745 22.46768-0.1739 0-36.667-32.71649-81.0956-72.70337zm-712.6479-146.43188c-119.7954-107.8401-218.5129-196.36997-219.3723-196.73303-1.2027-0.50818 28.0112-0.6934 126.8736-0.80441 70.6398-0.0793 128.8055-0.018 129.257 0.13666 0.4514 0.15448 0.6789 0.48757 0.5054 0.7402s69.1359 62.96537 154.0209 139.36166l154.3362 138.90236-63.5916 57.2347c-34.9753 31.47914-63.7328 57.23476-63.9055 57.23476s-98.3283-88.23284-218.1237-196.0729zm-904.3261 129.45188c-26.6174-23.95725-48.6946-43.51101-49.0604-43.45283-0.4685 0.0745-0.7118-41.8575-0.8227-141.78674l-0.1575-141.89258 57.9694 0.14355c40.5249 0.10034 57.934 0.32354 57.852 0.74168-0.065 0.32899 44.0208 40.32215 97.9676 88.87372 53.9468 48.55156 98.0851 88.52929 98.0851 88.83934 0 0.55331-212.511 192.09254-213.1249 192.09254-0.1723 0-22.0912-19.60137-48.7086-43.55868zm1380.8758-195.17654c-79.6985-71.95365-145.2603-130.82477-145.6928-130.82477-0.4326 0-0.9603-0.25312-1.1728-0.5625-0.2572-0.37467 85.8276-0.56249 257.7781-0.56249h258.1643l-0.1615 31.35916c-0.089 17.24752-0.3722 31.23257-0.6296 31.07791-0.2575-0.15471-50.6232 44.85794-111.9239 100.02811l-111.4556 100.30935zm-1202.1672-46.21225c-51.3896-46.27494-94.1388-84.43329-94.9982-84.7963-1.2049-0.50895 20.2251-0.69259 93.6433-0.80243 148.4658-0.22208 284.9363 0.0845 283.5401 0.6371-0.6875 0.27207-43.4374 38.43041-94.9998 84.7963l-93.7497 84.30166zm807.1764-62.15655c-13.4045-12.08966-25.0748-22.27786-25.9342-22.64047-1.2287-0.51844 4.0122-0.69061 24.5309-0.80608 47.125-0.26509 78.476 0.0643 76.7179 0.80608-0.8593 0.36261-12.5297 10.55081-25.9342 22.64047-13.4044 12.08966-24.515 21.98123-24.6902 21.98123s-11.2858-9.89157-24.6902-21.98123z" fill="#3272a1" filter="url(#filter4706)"/>
    </g>
</svg>
