<svg width="1920" height="1080" version="1.1" viewBox="0 0 1799.9999 1012.5" xmlns="http://www.w3.org/2000/svg">
    <g transform="translate(-79.420999,-299.37854)">
        <g>
            <path d="m79.421001 805.62848v-506.24996h1799.9999v1012.5h-1799.9999z" stroke-width=".9375"/>
            <path d="m84.367894 434.36877 1774.5248-129.71681-1580.3552 892.38054z" fill="#448aff" fill-rule="evenodd"/>
            <path d="m1874.4739 1176.8883-1774.5249 129.7168 1580.3552-892.38066z" fill="#448aff" fill-rule="evenodd"/>
        </g>
        <g class="st0" transform="matrix(.93749997 0 0 .93749997 1645.7034 -183.33055)" display="none">
            <path class="st1" d="m431.3 357.4c-9.9 35-37.4 62.5-72.4 72.4v232c161.6-13.4 290.3-142.6 303.1-304.4z" display="inline"/>
        </g>
        <g opacity=".5">
            <g stroke-width=".29748413">
                <path class="st2" d="m1583.8704 1026.9432h-68.1834c3.8078 48.2817 42.332 86.8059 90.6137 90.6137v-68.8081c-10.8285-2.7369-19.396-11.0962-22.4303-21.8056z"/>
                <path class="st3" d="m1606.3007 988.12151v-67.49915c-48.133 3.8078-86.5679 42.094-90.584 90.16744h67.9157c2.7963-11.12591 11.5424-19.87194 22.6683-22.66829z"/>
                <path class="st4" d="m1644.2299 1010.7898h68.3321c-3.9565-47.92469-42.1833-86.1514-90.1079-90.13769v67.70739c10.7094 3.03433 19.0687 11.60188 21.7758 22.4303z"/>
            </g>
            <rect class="st5" transform="rotate(-45)" x="400.80179" y="1891.6089" width="42.391083" height="77.374878" stroke-width=".29748127"/>
        </g>
    </g>
    <style type="text/css">.st0{display:none;}
	.st1{display:inline;}
	.st2{fill:#303F9F;}
	.st3{fill:#3F51B5;}
	.st4{fill:#448AFF;}
	.st5{fill:#FF5722;}</style>
</svg>
