<?xml version="1.0" encoding="UTF-8"?>
<svg width="1920" height="1080" version="1.1" viewBox="0 0 508 285.75" xml:space="preserve" xmlns="http://www.w3.org/2000/svg"><defs><filter id="filter1237" x="-.009484" y="-.016333" width="1.019" height="1.0327" color-interpolation-filters="sRGB"><feGaussianBlur stdDeviation="1.9446875"/></filter><filter id="filter1268" x="-.0093062" y="-.016889" width="1.0186" height="1.0338" color-interpolation-filters="sRGB"><feGaussianBlur stdDeviation="2.0108333"/></filter><filter id="filter1299" x="-.009375" y="-.016667" width="1.0188" height="1.0333" color-interpolation-filters="sRGB"><feGaussianBlur stdDeviation="1.9843751"/></filter><clipPath id="clipPath1518"><path d="m0 0h508v285.75h-508z" stroke-width=".98986"/></clipPath><clipPath id="clipPath1524"><path d="m0 0h508v285.75h-508z" stroke-width=".98986"/></clipPath><clipPath id="clipPath1530"><path d="m0 0h508v285.75h-508z" stroke-width=".98986"/></clipPath><clipPath id="clipPath1536"><g transform="translate(-254,-142.88)"><path d="m0 0h508v285.75h-508z" stroke-width=".98986"/></g></clipPath><clipPath id="clipPath1542"><path d="m0 0h508v285.75h-508z" stroke-width=".98986"/></clipPath><clipPath id="clipPath1548"><path d="m0 0h508v285.75h-508z" stroke-width=".98986"/></clipPath><clipPath id="clipPath1554"><path d="m0 0h508v285.75h-508z" stroke-width=".98986"/></clipPath><clipPath id="clipPath1560"><path d="m0 0h508v285.75h-508z" stroke-width=".98986"/></clipPath><filter id="filter2811" x="-.014825" y="-.010079" width="1.0297" height="1.0202" color-interpolation-filters="sRGB"><feGaussianBlur stdDeviation="0.70542227"/></filter></defs><style type="text/css">.st0{display:none;}</style><style type="text/css">.st0{display:none;}</style><style type="text/css">.st0{display:none;}</style><style type="text/css">.st0{display:none;}</style><rect x="1.9444e-6" y="1.0937e-6" width="508" height="285.75" clip-path="url(#clipPath1560)" fill="#303f9f" stroke-width=".86643"/><path d="m142.88 0 365.12 8e-6v121.71l-142.88 164.04-365.12-0.01-2e-5 -121.7z" clip-path="url(#clipPath1548)" fill-opacity=".99726" filter="url(#filter1299)" opacity=".2" stroke-width=".60076"/><path class="UnoptimicedTransforms" transform="translate(254,142.88)" d="m0 0" clip-path="url(#clipPath1536)"/><path d="m158.75 9.375e-8 349.25 1.2e-5v105.83l-158.75 179.92-349.25-1e-5 -2e-5 -105.83z" clip-path="url(#clipPath1554)" fill="#3f51b5" stroke-width=".60076"/><g stroke-width=".86643"><path d="m248.71 0h264.58l-254 285.75h-264.58z" clip-path="url(#clipPath1542)" filter="url(#filter1268)" opacity=".2"/><path d="m254 0 254 1.0937e-6 -254 285.75h-254z" clip-path="url(#clipPath1530)" fill="#ff5722"/><path transform="translate(1.6875e-5)" d="m261.94 0h238.12l-254 285.75h-238.12z" clip-path="url(#clipPath1524)" filter="url(#filter1237)" opacity=".2" style="mix-blend-mode:normal"/><path d="m267.23 0h227.54l-254 285.75h-227.54z" clip-path="url(#clipPath1518)" fill="#448aff"/></g><g transform="matrix(.31503 0 0 .31503 176.03 104.83)" filter="url(#filter2811)" opacity=".2" stroke-width=".11394"><path class="st4" d="m251.3 40.987c-9.5063 0-18.046 1.9335-25.619 5.8005-7.4923 3.7864-13.857 9.3852-19.094 16.797-5.2365 7.4117-9.2644 16.596-12.084 27.552-2.7391 10.956-4.1088 23.565-4.1088 37.824 0 12.245 1.2084 23.323 3.6253 33.232 2.4974 9.8286 6.2032 18.207 11.117 25.136 4.9143 6.9283 11.077 12.285 18.489 16.072 7.4117 3.7058 16.072 5.5589 25.982 5.5589 8.9424 0 16.837-1.4097 23.685-4.2294 6.8478-2.8197 12.568-6.7271 17.16-11.722 4.6726-5.0754 8.1771-11.037 10.513-17.885 2.4169-6.9283 3.6253-14.421 3.6253-22.477 0-7.9756-1.2084-15.186-3.6253-21.631-2.4169-6.445-5.8809-11.963-10.392-16.555-4.4309-4.592-9.8289-8.1369-16.193-10.634-6.2838-2.4974-13.293-3.7458-21.027-3.7458-9.2646 0-17.482 1.933-24.652 5.8-7.17 3.7864-12.729 9.3452-16.676 16.676 0-10.393 0.88633-19.536 2.6587-27.431 1.8529-7.9756 4.4711-14.662 7.8547-20.06 3.3836-5.3977 7.4923-9.4664 12.326-12.205 4.8337-2.8197 10.232-4.2294 16.193-4.2294 6.5255 0 12.245 1.6514 17.159 4.9544 4.9949 3.2225 8.6202 8.4996 10.876 15.831l20.785-3.7463c-1.8529-6.445-4.3502-11.883-7.4921-16.314-3.1419-4.4309-6.8077-7.9758-10.997-10.634-4.1087-2.7391-8.7007-4.7126-13.776-5.921-5.0754-1.2084-10.513-1.8126-16.314-1.8126zm-0.29411 75.424v25.853c-4.2614 1.071-7.6115 4.4208-8.6826 8.6821h-26.012c1.5382-18.413 16.259-33.077 34.695-34.536zm6.187 0.0113c18.356 1.5268 32.997 16.168 34.513 34.524h-26.172c-1.0369-4.1474-4.2386-7.4288-8.3405-8.591zm10.916 39.655 20.956 20.956-11.481 11.481-20.956-20.956zm-51.809 1.0563h26.115c1.1622 4.1019 4.4436 7.3035 8.591 8.3518v26.355c-18.493-1.4584-33.248-16.214-34.706-34.706z"/></g><g transform="matrix(.31503 0 0 .31503 176.03 103.5)" fill="#263238" stroke-width=".11394"><path class="st4" d="m251.3 40.987c-9.5063 0-18.046 1.9335-25.619 5.8005-7.4923 3.7864-13.857 9.3852-19.094 16.797-5.2365 7.4117-9.2644 16.596-12.084 27.552-2.7391 10.956-4.1088 23.565-4.1088 37.824 0 12.245 1.2084 23.323 3.6253 33.232 2.4974 9.8286 6.2032 18.207 11.117 25.136 4.9143 6.9283 11.077 12.285 18.489 16.072 7.4117 3.7058 16.072 5.5589 25.982 5.5589 8.9424 0 16.837-1.4097 23.685-4.2294 6.8478-2.8197 12.568-6.7271 17.16-11.722 4.6726-5.0754 8.1771-11.037 10.513-17.885 2.4169-6.9283 3.6253-14.421 3.6253-22.477 0-7.9756-1.2084-15.186-3.6253-21.631-2.4169-6.445-5.8809-11.963-10.392-16.555-4.4309-4.592-9.8289-8.1369-16.193-10.634-6.2838-2.4974-13.293-3.7458-21.027-3.7458-9.2646 0-17.482 1.933-24.652 5.8-7.17 3.7864-12.729 9.3452-16.676 16.676 0-10.393 0.88633-19.536 2.6587-27.431 1.8529-7.9756 4.4711-14.662 7.8547-20.06 3.3836-5.3977 7.4923-9.4664 12.326-12.205 4.8337-2.8197 10.232-4.2294 16.193-4.2294 6.5255 0 12.245 1.6514 17.159 4.9544 4.9949 3.2225 8.6202 8.4996 10.876 15.831l20.785-3.7463c-1.8529-6.445-4.3502-11.883-7.4921-16.314-3.1419-4.4309-6.8077-7.9758-10.997-10.634-4.1087-2.7391-8.7007-4.7126-13.776-5.921-5.0754-1.2084-10.513-1.8126-16.314-1.8126zm-0.29411 75.424v25.853c-4.2614 1.071-7.6115 4.4208-8.6826 8.6821h-26.012c1.5382-18.413 16.259-33.077 34.695-34.536zm6.187 0.0113c18.356 1.5268 32.997 16.168 34.513 34.524h-26.172c-1.0369-4.1474-4.2386-7.4288-8.3405-8.591zm10.916 39.655 20.956 20.956-11.481 11.481-20.956-20.956zm-51.809 1.0563h26.115c1.1622 4.1019 4.4436 7.3035 8.591 8.3518v26.355c-18.493-1.4584-33.248-16.214-34.706-34.706z" fill="#263238"/></g></svg>
