<?xml version="1.0" encoding="UTF-8"?>
<svg width="1920" height="1080" version="1.1" viewBox="0 0 508 285.75" xml:space="preserve" xmlns="http://www.w3.org/2000/svg"><defs><filter id="filter1237" x="-.0094839" y="-.016333" width="1.019" height="1.0327" color-interpolation-filters="sRGB"><feGaussianBlur stdDeviation="1.9446875"/></filter><filter id="filter1268" x="-.0093061" y="-.016889" width="1.0186" height="1.0338" color-interpolation-filters="sRGB"><feGaussianBlur stdDeviation="2.0108333"/></filter><filter id="filter1299" x="-.009375" y="-.016667" width="1.0188" height="1.0333" color-interpolation-filters="sRGB"><feGaussianBlur stdDeviation="1.9843751"/></filter><clipPath id="clipPath1518"><path d="m0 0h508v285.75h-508z" stroke-width=".98986"/></clipPath><clipPath id="clipPath1524"><path d="m0 0h508v285.75h-508z" stroke-width=".98986"/></clipPath><clipPath id="clipPath1530"><path d="m0 0h508v285.75h-508z" stroke-width=".98986"/></clipPath><clipPath id="clipPath1536"><g transform="translate(-254,-142.88)"><path d="m0 0h508v285.75h-508z" stroke-width=".98986"/></g></clipPath><clipPath id="clipPath1542"><path d="m0 0h508v285.75h-508z" stroke-width=".98986"/></clipPath><clipPath id="clipPath1548"><path d="m0 0h508v285.75h-508z" stroke-width=".98986"/></clipPath><clipPath id="clipPath1554"><path d="m0 0h508v285.75h-508z" stroke-width=".98986"/></clipPath><clipPath id="clipPath1560"><path d="m0 0h508v285.75h-508z" stroke-width=".98986"/></clipPath></defs><style type="text/css">.st0{display:none;}</style><style type="text/css">.st0{display:none;}</style><style type="text/css">.st0{display:none;}</style><style type="text/css">.st0{display:none;}</style><rect x="1.9444e-6" y="1.0937e-6" width="508" height="285.75" clip-path="url(#clipPath1560)" fill="#1a1a1a" stroke-width=".86643"/><path d="m142.88 0 365.12 8e-6v121.71l-142.88 164.04-365.12-0.01-2e-5 -121.7z" clip-path="url(#clipPath1548)" fill-opacity=".99726" filter="url(#filter1299)" opacity=".2" stroke-width=".60076"/><path class="UnoptimicedTransforms" transform="translate(254 142.88)" d="m0 0" clip-path="url(#clipPath1536)"/><path d="m158.75 9.375e-8 349.25 1.2e-5v105.83l-158.75 179.92-349.25-1e-5 -2e-5 -105.83z" clip-path="url(#clipPath1554)" fill="#333" stroke-width=".60076"/><g stroke-width=".86643"><path d="m248.71 0h264.58l-254 285.75h-264.58z" clip-path="url(#clipPath1542)" filter="url(#filter1268)" opacity=".2"/><path d="m254 0 254 1.0937e-6 -254 285.75h-254z" clip-path="url(#clipPath1530)" fill="#303f9f"/><path transform="translate(1.6875e-5)" d="m261.94 0h238.12l-254 285.75h-238.12z" clip-path="url(#clipPath1524)" filter="url(#filter1237)" opacity=".2" style="mix-blend-mode:normal"/><path d="m267.23 0h227.54l-254 285.75h-227.54z" clip-path="url(#clipPath1518)" fill="#4d4d4d"/></g></svg>
